<svg xmlns="http://www.w3.org/2000/svg" xmlns:xlink="http://www.w3.org/1999/xlink" width="48" zoomAndPan="magnify" viewBox="0 0 36 43.92" height="48" preserveAspectRatio="xMidYMid meet" version="1.2"><defs><clipPath id="c769e4289c"><path d="M 5.941406 0 L 29.894531 0 L 29.894531 35.933594 L 5.941406 35.933594 Z M 5.941406 0 "/></clipPath></defs><g id="7f07129251"><g clip-rule="nonzero" clip-path="url(#c769e4289c)"><path style=" stroke:none;fill-rule:evenodd;fill:#483520;fill-opacity:1;" d="M 5.929688 12.046875 C 5.929688 5.429688 11.296875 0.0625 17.917969 0.0625 C 24.539062 0.0625 29.90625 5.429688 29.90625 12.046875 C 29.90625 18.417969 23.28125 26.210938 18.664062 30.578125 C 18.246094 30.976562 17.589844 30.976562 17.171875 30.578125 C 12.554688 26.210938 5.929688 18.417969 5.929688 12.046875 Z M 13.371094 27.816406 C 9.148438 28.429688 6.179688 29.878906 6.179688 31.5625 C 6.179688 33.808594 11.4375 35.628906 17.917969 35.628906 C 24.398438 35.628906 29.652344 33.808594 29.652344 31.5625 C 29.652344 29.878906 26.6875 28.429688 22.464844 27.816406 L 22.378906 27.910156 C 25.058594 28.445312 26.859375 29.449219 26.859375 30.597656 C 26.859375 32.304688 22.855469 33.691406 17.917969 33.691406 C 12.980469 33.691406 8.976562 32.304688 8.976562 30.597656 C 8.976562 29.449219 10.777344 28.445312 13.457031 27.910156 Z M 17.917969 6.554688 C 14.882812 6.554688 12.425781 9.015625 12.425781 12.046875 C 12.425781 15.082031 14.882812 17.539062 17.917969 17.539062 C 20.949219 17.539062 23.410156 15.082031 23.410156 12.046875 C 23.410156 9.015625 20.949219 6.554688 17.917969 6.554688 Z M 17.917969 6.554688 "/></g></g></svg>