<svg xmlns="http://www.w3.org/2000/svg" xmlns:xlink="http://www.w3.org/1999/xlink" width="48" zoomAndPan="magnify" viewBox="0 0 36 43.92" height="48" preserveAspectRatio="xMidYMid meet" version="1.2"><defs><clipPath id="1c19a15b2a"><path d="M 1 7 L 35 7 L 35 30.539062 L 1 30.539062 Z M 1 7 "/></clipPath><clipPath id="b1f9c4c819"><path d="M 8 5.085938 L 34 5.085938 L 34 12 L 8 12 Z M 8 5.085938 "/></clipPath><clipPath id="612c5d9297"><path d="M 0.847656 5.085938 L 35 5.085938 L 35 30.539062 L 0.847656 30.539062 Z M 0.847656 5.085938 "/></clipPath></defs><g id="a58c881565"><g clip-rule="nonzero" clip-path="url(#1c19a15b2a)"><path style=" stroke:none;fill-rule:nonzero;fill:#ffffff;fill-opacity:1;" d="M 34.589844 30.378906 L 3.917969 30.378906 L 4.386719 27.832031 L 1.132812 27.832031 C 6.539062 20.90625 8.085938 7.742188 8.085938 7.742188 L 8.152344 7.207031 L 32.800781 7.207031 Z M 34.589844 30.378906 "/></g><g clip-rule="nonzero" clip-path="url(#b1f9c4c819)"><path style=" stroke:none;fill-rule:nonzero;fill:#745635;fill-opacity:1;" d="M 33.703125 7.082031 L 32.886719 10.667969 C 32.792969 11.070312 32.460938 11.355469 32.082031 11.355469 L 9.441406 11.355469 C 8.925781 11.355469 8.535156 10.851562 8.621094 10.304688 L 9.191406 6.71875 C 9.257812 6.285156 9.605469 5.972656 10.011719 5.972656 L 32.894531 5.972656 C 33.429688 5.972656 33.832031 6.519531 33.703125 7.082031 Z M 33.703125 7.082031 "/></g><g clip-rule="nonzero" clip-path="url(#612c5d9297)"><path style=" stroke:none;fill-rule:nonzero;fill:#483520;fill-opacity:1;" d="M 23.898438 20.308594 L 26.753906 20.308594 L 26.753906 20.03125 L 23.988281 20.03125 L 25.203125 16.324219 L 28.183594 16.324219 L 28.183594 16.042969 L 25.289062 16.042969 L 26.203125 13.238281 L 25.941406 13.148438 L 24.992188 16.042969 L 20.761719 16.042969 L 21.675781 13.238281 L 21.414062 13.148438 L 20.464844 16.042969 L 16.011719 16.042969 L 16.925781 13.238281 L 16.660156 13.148438 L 15.710938 16.042969 L 11.773438 16.042969 L 12.6875 13.238281 L 12.425781 13.148438 L 11.476562 16.042969 L 8.683594 16.042969 L 8.683594 16.324219 L 11.378906 16.324219 L 10.167969 20.03125 L 7.265625 20.03125 L 7.265625 20.308594 L 10.09375 20.308594 L 8.898438 23.960938 L 5.695312 23.960938 L 5.695312 24.238281 L 8.804688 24.238281 L 8.132812 26.300781 L 8.398438 26.386719 L 9.101562 24.246094 L 13.042969 24.246094 L 12.371094 26.308594 L 12.632812 26.394531 L 13.332031 24.253906 L 17.792969 24.253906 L 17.121094 26.3125 L 17.386719 26.402344 L 18.085938 24.261719 L 22.3125 24.261719 L 21.644531 26.320312 L 21.90625 26.410156 L 22.613281 24.265625 L 25.179688 24.265625 L 25.179688 23.988281 L 22.699219 23.988281 Z M 20.679688 16.316406 L 24.910156 16.316406 L 23.695312 20.023438 L 19.46875 20.023438 Z M 15.929688 16.316406 L 20.382812 16.316406 L 19.167969 20.023438 L 14.714844 20.023438 Z M 11.691406 16.316406 L 15.628906 16.316406 L 14.417969 20.023438 L 10.480469 20.023438 Z M 13.136719 23.960938 L 9.199219 23.960938 L 10.390625 20.308594 L 14.328125 20.308594 Z M 17.882812 23.960938 L 13.425781 23.960938 L 14.621094 20.308594 L 19.082031 20.308594 Z M 22.410156 23.960938 L 18.179688 23.960938 L 19.371094 20.308594 L 23.601562 20.308594 Z M 32.941406 7.210938 L 32.96875 7.0625 L 31.167969 7.0625 C 30.949219 6.183594 30.320312 5.53125 29.5 5.355469 C 28.355469 5.105469 27.195312 5.855469 26.800781 7.0625 L 25.519531 7.0625 C 25.296875 6.195312 24.667969 5.542969 23.851562 5.367188 C 22.714844 5.117188 21.554688 5.863281 21.160156 7.0625 L 19.847656 7.0625 C 19.621094 6.203125 19 5.566406 18.1875 5.390625 C 17.046875 5.136719 15.902344 5.875 15.5 7.070312 L 14.226562 7.070312 C 13.996094 6.210938 13.375 5.578125 12.566406 5.402344 C 11.433594 5.152344 10.289062 5.890625 9.890625 7.070312 L 8.03125 7.070312 L 7.945312 7.734375 C 7.929688 7.863281 6.34375 20.925781 1.023438 27.742188 L 0.847656 27.96875 L 4.222656 27.96875 L 3.753906 30.523438 L 34.738281 30.523438 Z M 29.4375 5.625 C 30.128906 5.78125 30.671875 6.324219 30.875 7.0625 L 27.09375 7.0625 C 27.472656 6.046875 28.460938 5.414062 29.4375 5.625 Z M 23.792969 5.644531 C 24.484375 5.796875 25.019531 6.335938 25.230469 7.070312 L 21.460938 7.070312 C 21.839844 6.054688 22.824219 5.429688 23.792969 5.644531 Z M 18.125 5.660156 C 18.808594 5.808594 19.34375 6.34375 19.554688 7.070312 L 15.792969 7.070312 C 16.179688 6.066406 17.164062 5.449219 18.125 5.660156 Z M 12.503906 5.671875 C 13.183594 5.824219 13.71875 6.351562 13.9375 7.0625 L 10.1875 7.0625 C 10.574219 6.074219 11.550781 5.464844 12.503906 5.671875 Z M 8.222656 7.761719 L 8.277344 7.347656 L 9.808594 7.347656 C 9.808594 7.355469 9.800781 7.367188 9.800781 7.375 C 9.660156 8.03125 9.753906 8.695312 10.066406 9.253906 C 10.382812 9.816406 10.886719 10.195312 11.480469 10.324219 L 11.542969 10.050781 C 11.027344 9.9375 10.585938 9.605469 10.308594 9.109375 C 10.03125 8.617188 9.945312 8.019531 10.074219 7.429688 C 10.078125 7.394531 10.085938 7.367188 10.09375 7.339844 L 15.421875 7.339844 C 15.421875 7.347656 15.421875 7.347656 15.414062 7.355469 C 15.269531 8.011719 15.367188 8.675781 15.679688 9.230469 C 15.996094 9.792969 16.5 10.175781 17.09375 10.308594 L 17.15625 10.039062 C 16.632812 9.921875 16.199219 9.589844 15.921875 9.101562 C 15.644531 8.609375 15.554688 8.011719 15.683594 7.421875 C 15.691406 7.394531 15.699219 7.375 15.707031 7.347656 L 21.082031 7.347656 C 20.78125 8.703125 21.542969 10.03125 22.769531 10.296875 L 22.828125 10.023438 C 21.75 9.789062 21.09375 8.617188 21.359375 7.410156 C 21.363281 7.386719 21.371094 7.367188 21.371094 7.347656 L 26.71875 7.347656 C 26.585938 8 26.679688 8.65625 26.992188 9.210938 C 27.308594 9.773438 27.8125 10.152344 28.40625 10.28125 L 28.46875 10.011719 C 27.945312 9.898438 27.511719 9.5625 27.234375 9.070312 C 26.957031 8.574219 26.867188 7.976562 26.996094 7.386719 C 26.996094 7.375 27.003906 7.363281 27.011719 7.347656 L 32.636719 7.347656 C 32.414062 8.480469 31.960938 10.152344 31.398438 12.066406 L 7.488281 12.066406 C 8.011719 9.542969 8.222656 7.808594 8.222656 7.761719 Z M 1.417969 27.691406 C 4.675781 23.371094 6.507812 16.757812 7.429688 12.34375 L 31.308594 12.34375 C 29.492188 18.429688 26.613281 26.714844 26.273438 27.691406 Z M 28.449219 30.238281 L 4.085938 30.238281 L 4.5 27.96875 L 26.46875 27.96875 L 26.503906 27.871094 C 26.550781 27.742188 30.046875 17.746094 31.914062 11.265625 Z M 28.734375 30.238281 L 32.578125 9.226562 L 31.675781 30.238281 Z M 32.839844 9.550781 L 34.433594 30.238281 L 31.960938 30.238281 Z M 32.839844 9.550781 "/></g></g></svg>