<svg xmlns="http://www.w3.org/2000/svg" xmlns:xlink="http://www.w3.org/1999/xlink" width="48" zoomAndPan="magnify" viewBox="0 0 36 43.92" height="48" preserveAspectRatio="xMidYMid meet" version="1.2"><defs><clipPath id="28ff7e62ed"><path d="M 0.03125 0 L 35.964844 0 L 35.964844 35.933594 L 0.03125 35.933594 Z M 0.03125 0 "/></clipPath></defs><g id="766dcfdf55"><g clip-rule="nonzero" clip-path="url(#28ff7e62ed)"><path style=" stroke:none;fill-rule:nonzero;fill:#483520;fill-opacity:1;" d="M 30.574219 -0.00390625 L 5.425781 -0.00390625 C 2.449219 -0.00390625 0.03125 2.417969 0.03125 5.394531 L 0.03125 30.539062 C 0.03125 33.515625 2.449219 35.9375 5.425781 35.9375 L 30.574219 35.9375 C 33.550781 35.9375 35.972656 33.515625 35.972656 30.539062 L 35.972656 5.394531 C 35.96875 2.417969 33.550781 -0.00390625 30.574219 -0.00390625 Z M 34.429688 30.539062 C 34.429688 32.664062 32.699219 34.394531 30.574219 34.394531 L 5.425781 34.394531 C 3.300781 34.394531 1.570312 32.664062 1.570312 30.539062 L 1.570312 5.394531 C 1.570312 3.269531 3.300781 1.539062 5.425781 1.539062 L 30.574219 1.539062 C 32.699219 1.539062 34.429688 3.269531 34.429688 5.394531 Z M 34.429688 30.539062 "/></g><path style=" stroke:none;fill-rule:nonzero;fill:#483520;fill-opacity:1;" d="M 18 9.871094 C 13.535156 9.871094 9.902344 13.503906 9.902344 17.96875 C 9.902344 22.433594 13.535156 26.0625 18 26.0625 C 22.464844 26.0625 26.097656 22.433594 26.097656 17.96875 C 26.097656 13.503906 22.464844 9.871094 18 9.871094 Z M 18 24.523438 C 14.386719 24.523438 11.445312 21.582031 11.445312 17.96875 C 11.445312 14.351562 14.386719 11.414062 18 11.414062 C 21.613281 11.414062 24.554688 14.351562 24.554688 17.96875 C 24.554688 21.582031 21.613281 24.523438 18 24.523438 Z M 18 24.523438 "/><path style=" stroke:none;fill-rule:nonzero;fill:#483520;fill-opacity:1;" d="M 29.652344 2.160156 C 27.101562 2.160156 25.023438 4.234375 25.023438 6.785156 C 25.023438 7.421875 25.15625 8.03125 25.386719 8.582031 C 23.351562 6.976562 20.789062 6.015625 18 6.015625 C 11.410156 6.015625 6.046875 11.375 6.046875 17.96875 C 6.046875 24.558594 11.410156 29.917969 18 29.917969 C 24.589844 29.917969 29.953125 24.558594 29.953125 17.96875 C 29.953125 15.351562 29.105469 12.933594 27.675781 10.964844 C 28.277344 11.25 28.945312 11.414062 29.652344 11.414062 C 32.203125 11.414062 34.277344 9.335938 34.277344 6.785156 C 34.277344 4.234375 32.203125 2.160156 29.652344 2.160156 Z M 18 28.378906 C 12.257812 28.378906 7.589844 23.707031 7.589844 17.96875 C 7.589844 12.226562 12.257812 7.558594 18 7.558594 C 23.742188 7.558594 28.410156 12.226562 28.410156 17.96875 C 28.410156 23.707031 23.742188 28.378906 18 28.378906 Z M 29.652344 9.871094 C 27.953125 9.871094 26.566406 8.488281 26.566406 6.785156 C 26.566406 5.085938 27.953125 3.703125 29.652344 3.703125 C 31.351562 3.703125 32.738281 5.085938 32.738281 6.785156 C 32.738281 8.488281 31.351562 9.871094 29.652344 9.871094 Z M 29.652344 9.871094 "/></g></svg>