<svg xmlns="http://www.w3.org/2000/svg" xmlns:xlink="http://www.w3.org/1999/xlink" width="48" zoomAndPan="magnify" viewBox="0 0 36 43.92" height="48" preserveAspectRatio="xMidYMid meet" version="1.2"><defs><clipPath id="e7829a5042"><path d="M 1.132812 22 L 34.820312 22 L 34.820312 31.941406 L 1.132812 31.941406 Z M 1.132812 22 "/></clipPath><clipPath id="fae441dea6"><path d="M 7 4.242188 L 17 4.242188 L 17 23 L 7 23 Z M 7 4.242188 "/></clipPath></defs><g id="7b32a4be4f"><g clip-rule="nonzero" clip-path="url(#e7829a5042)"><path style=" stroke:none;fill-rule:nonzero;fill:#6b4d2b;fill-opacity:1;" d="M 23.996094 31.652344 C 22.160156 31.652344 20.4375 30.6875 19.5 29.128906 C 19.003906 28.304688 18.746094 27.335938 18.753906 26.332031 C 18.757812 25.4375 18.964844 24.511719 19.367188 23.578125 C 18.078125 23.617188 16.515625 23.640625 15.035156 23.644531 C 15.390625 24.511719 15.5625 25.398438 15.550781 26.285156 C 15.53125 27.316406 15.25 28.308594 14.738281 29.15625 C 14.277344 29.910156 13.640625 30.539062 12.890625 30.96875 C 12.113281 31.417969 11.207031 31.652344 10.277344 31.652344 C 8.367188 31.652344 6.609375 30.621094 5.6875 28.960938 C 5.191406 28.070312 4.964844 27.035156 5.03125 25.96875 C 5.09375 24.996094 5.382812 24.011719 5.902344 23.03125 C 4.375 22.996094 2.730469 23.410156 2.058594 23.582031 C 1.832031 23.636719 1.738281 23.660156 1.667969 23.671875 C 1.425781 23.699219 1.207031 23.53125 1.175781 23.292969 C 1.148438 23.054688 1.316406 22.835938 1.554688 22.804688 C 1.589844 22.796875 1.71875 22.765625 1.84375 22.734375 C 2.660156 22.527344 4.832031 21.980469 6.683594 22.210938 C 6.832031 22.226562 6.957031 22.320312 7.023438 22.457031 C 7.085938 22.589844 7.078125 22.75 7 22.875 C 6.335938 23.933594 5.96875 24.992188 5.90625 26.019531 C 5.851562 26.921875 6.039062 27.789062 6.453125 28.535156 C 7.21875 29.917969 8.683594 30.777344 10.277344 30.777344 C 11.066406 30.777344 11.800781 30.585938 12.457031 30.210938 C 13.078125 29.851562 13.609375 29.332031 13.988281 28.703125 C 14.421875 27.988281 14.660156 27.148438 14.675781 26.269531 C 14.691406 25.3125 14.453125 24.347656 13.960938 23.410156 C 13.890625 23.273438 13.898438 23.109375 13.976562 22.980469 C 14.054688 22.847656 14.199219 22.769531 14.351562 22.769531 C 16.296875 22.777344 18.484375 22.742188 20.058594 22.679688 C 20.214844 22.675781 20.363281 22.753906 20.445312 22.886719 C 20.527344 23.015625 20.535156 23.183594 20.460938 23.324219 C 19.0625 25.964844 19.730469 27.8125 20.25 28.675781 C 21.03125 29.972656 22.464844 30.777344 23.996094 30.777344 C 24.78125 30.777344 25.542969 30.574219 26.207031 30.191406 C 26.859375 29.8125 27.402344 29.261719 27.78125 28.601562 C 28.210938 27.855469 28.421875 26.972656 28.386719 26.050781 C 28.347656 25.011719 28.007812 23.945312 27.386719 22.878906 C 27.3125 22.75 27.304688 22.589844 27.375 22.457031 C 27.441406 22.324219 27.574219 22.238281 27.722656 22.222656 C 30.136719 21.996094 32.066406 22.097656 34.394531 22.339844 C 34.632812 22.363281 34.808594 22.578125 34.78125 22.820312 C 34.757812 23.058594 34.542969 23.234375 34.304688 23.210938 C 32.246094 22.996094 30.511719 22.894531 28.464844 23.039062 C 29.5 25.148438 29.535156 27.304688 28.542969 29.039062 C 28.085938 29.832031 27.429688 30.492188 26.644531 30.949219 C 25.847656 31.410156 24.933594 31.652344 23.996094 31.652344 Z M 23.996094 31.652344 "/></g><path style=" stroke:none;fill-rule:nonzero;fill:#6b4d2b;fill-opacity:1;" d="M 8.757812 23.828125 C 8.589844 23.65625 8.3125 23.65625 8.140625 23.828125 L 7.03125 24.9375 C 6.863281 25.105469 6.863281 25.382812 7.03125 25.554688 C 7.203125 25.726562 7.480469 25.726562 7.652344 25.554688 L 8.011719 25.191406 L 8.011719 28.136719 C 8.011719 28.375 8.207031 28.574219 8.449219 28.574219 C 8.691406 28.574219 8.886719 28.375 8.886719 28.136719 L 8.886719 25.195312 L 9.25 25.554688 C 9.332031 25.640625 9.445312 25.683594 9.558594 25.683594 C 9.667969 25.683594 9.78125 25.640625 9.867188 25.554688 C 10.039062 25.382812 10.039062 25.105469 9.867188 24.9375 Z M 8.757812 23.828125 "/><path style=" stroke:none;fill-rule:nonzero;fill:#6b4d2b;fill-opacity:1;" d="M 13.554688 24.9375 L 12.445312 23.828125 C 12.273438 23.65625 12 23.65625 11.828125 23.828125 L 10.71875 24.9375 C 10.550781 25.105469 10.550781 25.382812 10.71875 25.554688 C 10.890625 25.726562 11.167969 25.726562 11.339844 25.554688 L 11.699219 25.191406 L 11.699219 28.136719 C 11.699219 28.375 11.894531 28.574219 12.136719 28.574219 C 12.378906 28.574219 12.574219 28.375 12.574219 28.136719 L 12.574219 25.195312 L 12.933594 25.554688 C 13.019531 25.640625 13.132812 25.683594 13.242188 25.683594 C 13.355469 25.683594 13.46875 25.640625 13.554688 25.554688 C 13.722656 25.382812 13.722656 25.105469 13.554688 24.9375 Z M 13.554688 24.9375 "/><g clip-rule="nonzero" clip-path="url(#fae441dea6)"><path style=" stroke:none;fill-rule:nonzero;fill:#6b4d2b;fill-opacity:1;" d="M 16.09375 4.433594 C 15.945312 4.265625 15.691406 4.242188 15.511719 4.375 C 13.402344 5.925781 11.9375 8.589844 11.082031 10.550781 C 10.003906 13.011719 9.421875 15.386719 9.253906 16.675781 C 9.199219 17.085938 9.039062 17.492188 8.792969 17.855469 C 7.914062 19.144531 7.726562 20.480469 8.273438 21.519531 C 8.714844 22.351562 9.582031 22.867188 10.539062 22.867188 C 11.957031 22.867188 13.113281 21.710938 13.113281 20.289062 C 13.113281 19.117188 12.746094 18.492188 12.425781 17.941406 C 12.128906 17.4375 11.949219 17.089844 11.921875 16.488281 C 11.855469 15 12.035156 13.476562 12.449219 11.953125 C 12.78125 10.730469 13.269531 9.507812 13.894531 8.316406 C 14.960938 6.28125 16.082031 5.03125 16.09375 5.019531 C 16.246094 4.855469 16.246094 4.601562 16.09375 4.433594 Z M 16.09375 4.433594 "/></g><path style=" stroke:none;fill-rule:nonzero;fill:#6b4d2b;fill-opacity:1;" d="M 31.121094 5.878906 C 30.96875 5.710938 30.71875 5.6875 30.535156 5.820312 C 27.820312 7.816406 25.929688 11.257812 24.824219 13.789062 C 23.429688 16.976562 22.679688 20.046875 22.457031 21.710938 C 22.386719 22.265625 22.171875 22.8125 21.839844 23.300781 C 21.105469 24.375 20.78125 25.625 20.78125 26.386719 C 20.78125 28.164062 22.222656 29.605469 23.996094 29.605469 C 25.773438 29.605469 27.214844 28.164062 27.214844 26.386719 C 27.214844 24.902344 26.75 24.105469 26.335938 23.402344 C 25.996094 22.824219 25.703125 22.324219 25.664062 21.457031 C 25.582031 19.507812 25.8125 17.511719 26.355469 15.519531 C 26.792969 13.921875 27.425781 12.320312 28.246094 10.765625 C 29.640625 8.109375 31.105469 6.480469 31.121094 6.464844 C 31.269531 6.296875 31.269531 6.046875 31.121094 5.878906 Z M 31.121094 5.878906 "/></g></svg>