<svg xmlns="http://www.w3.org/2000/svg" xmlns:xlink="http://www.w3.org/1999/xlink" width="48" zoomAndPan="magnify" viewBox="0 0 36 43.92" height="48" preserveAspectRatio="xMidYMid meet" version="1.2"><defs><clipPath id="d560107847"><path d="M 0.03125 18 L 4 18 L 4 21 L 0.03125 21 Z M 0.03125 18 "/></clipPath><clipPath id="fc538ac18f"><path d="M 8 12.527344 L 30 12.527344 L 30 23 L 8 23 Z M 8 12.527344 "/></clipPath><clipPath id="c371be1b24"><path d="M 27 15 L 32 15 L 32 23.753906 L 27 23.753906 Z M 27 15 "/></clipPath><clipPath id="dde6df0841"><path d="M 32 19 L 34 19 L 34 23.753906 L 32 23.753906 Z M 32 19 "/></clipPath><clipPath id="afb1564942"><path d="M 0.03125 12.527344 L 31 12.527344 L 31 23 L 0.03125 23 Z M 0.03125 12.527344 "/></clipPath></defs><g id="cbe39793e7"><g clip-rule="nonzero" clip-path="url(#d560107847)"><path style=" stroke:none;fill-rule:nonzero;fill:#483520;fill-opacity:1;" d="M 1.792969 19.804688 C 2.246094 19.566406 2.707031 19.34375 3.058594 19.179688 C 3.40625 19.015625 3.640625 18.90625 3.632812 18.882812 C 3.625 18.859375 3.375 18.933594 3.011719 19.070312 C 2.648438 19.207031 2.171875 19.417969 1.710938 19.65625 C 1.25 19.890625 0.804688 20.160156 0.484375 20.378906 C 0.164062 20.597656 -0.0351562 20.765625 -0.0234375 20.785156 C -0.0078125 20.808594 0.222656 20.683594 0.554688 20.492188 C 0.890625 20.296875 1.335938 20.046875 1.792969 19.804688 Z M 1.792969 19.804688 "/></g><path style=" stroke:none;fill-rule:nonzero;fill:#483520;fill-opacity:1;" d="M 17.867188 14.085938 C 17.488281 13.976562 17.113281 13.886719 16.75 13.792969 C 16.382812 13.710938 16.03125 13.628906 15.691406 13.566406 C 15.355469 13.5 15.035156 13.441406 14.738281 13.398438 C 14.441406 13.351562 14.171875 13.316406 13.929688 13.289062 C 13.6875 13.257812 13.476562 13.234375 13.300781 13.226562 C 12.953125 13.199219 12.75 13.191406 12.75 13.207031 C 12.75 13.222656 12.945312 13.257812 13.289062 13.3125 C 13.460938 13.339844 13.671875 13.375 13.910156 13.414062 C 14.148438 13.453125 14.417969 13.496094 14.710938 13.554688 C 15.007812 13.605469 15.324219 13.667969 15.65625 13.738281 C 15.992188 13.804688 16.339844 13.894531 16.703125 13.980469 C 17.066406 14.074219 17.4375 14.164062 17.8125 14.277344 C 18.191406 14.382812 18.570312 14.503906 18.949219 14.621094 C 19.324219 14.753906 19.703125 14.875 20.066406 15.015625 C 20.4375 15.148438 20.792969 15.292969 21.136719 15.429688 C 21.480469 15.578125 21.816406 15.714844 22.125 15.859375 C 22.214844 15.902344 22.304688 15.941406 22.390625 15.980469 C 22.566406 16.101562 22.769531 16.242188 22.992188 16.402344 C 23.179688 16.53125 23.378906 16.679688 23.589844 16.832031 C 23.800781 16.984375 24.019531 17.152344 24.246094 17.324219 C 24.695312 17.671875 25.164062 18.054688 25.621094 18.453125 C 26.078125 18.851562 26.527344 19.261719 26.933594 19.65625 C 27.136719 19.859375 27.332031 20.050781 27.515625 20.238281 C 27.695312 20.425781 27.867188 20.601562 28.019531 20.769531 C 28.179688 20.933594 28.320312 21.089844 28.441406 21.226562 C 28.566406 21.363281 28.675781 21.484375 28.765625 21.582031 C 28.945312 21.78125 29.050781 21.886719 29.0625 21.878906 C 29.074219 21.871094 28.988281 21.746094 28.828125 21.527344 C 28.671875 21.3125 28.4375 21.011719 28.136719 20.667969 C 27.988281 20.492188 27.824219 20.304688 27.648438 20.113281 C 27.472656 19.914062 27.277344 19.71875 27.082031 19.511719 C 26.878906 19.308594 26.667969 19.097656 26.449219 18.894531 C 26.234375 18.683594 26.003906 18.480469 25.773438 18.277344 C 25.3125 17.878906 24.835938 17.492188 24.378906 17.148438 C 24.1875 17.011719 24.003906 16.875 23.824219 16.75 C 24.042969 16.882812 24.261719 17.011719 24.46875 17.152344 C 24.710938 17.304688 24.941406 17.46875 25.167969 17.625 C 25.386719 17.785156 25.605469 17.933594 25.800781 18.089844 C 25.902344 18.167969 26.003906 18.234375 26.09375 18.304688 C 26.1875 18.378906 26.277344 18.449219 26.363281 18.519531 C 26.539062 18.652344 26.691406 18.78125 26.828125 18.894531 C 26.96875 19.007812 27.085938 19.105469 27.183594 19.191406 C 27.378906 19.355469 27.496094 19.445312 27.503906 19.433594 C 27.515625 19.425781 27.421875 19.3125 27.246094 19.125 C 27.15625 19.03125 27.046875 18.917969 26.917969 18.796875 C 26.792969 18.667969 26.644531 18.53125 26.480469 18.378906 C 26.316406 18.230469 26.136719 18.074219 25.945312 17.910156 C 25.75 17.746094 25.535156 17.585938 25.320312 17.414062 C 24.875 17.082031 24.390625 16.75 23.890625 16.433594 C 23.636719 16.285156 23.382812 16.128906 23.128906 15.992188 C 22.875 15.847656 22.617188 15.722656 22.371094 15.597656 C 22.121094 15.480469 21.878906 15.363281 21.644531 15.265625 C 21.414062 15.164062 21.191406 15.078125 20.980469 15 C 20.773438 14.921875 20.582031 14.855469 20.410156 14.804688 C 20.242188 14.75 20.089844 14.703125 19.964844 14.671875 C 19.714844 14.609375 19.570312 14.582031 19.5625 14.601562 C 19.5625 14.609375 19.589844 14.628906 19.640625 14.65625 C 19.429688 14.582031 19.21875 14.507812 19.007812 14.4375 C 18.628906 14.316406 18.25 14.191406 17.867188 14.085938 Z M 17.867188 14.085938 "/><g clip-rule="nonzero" clip-path="url(#fc538ac18f)"><path style=" stroke:none;fill-rule:nonzero;fill:#483520;fill-opacity:1;" d="M 23.640625 18.105469 C 23.839844 18.246094 24.050781 18.402344 24.265625 18.566406 C 24.691406 18.890625 25.144531 19.246094 25.589844 19.609375 C 26.480469 20.335938 27.355469 21.085938 28.019531 21.636719 C 28.351562 21.914062 28.628906 22.144531 28.828125 22.300781 C 29.027344 22.457031 29.144531 22.542969 29.152344 22.535156 C 29.160156 22.523438 29.058594 22.417969 28.878906 22.242188 C 28.699219 22.066406 28.433594 21.820312 28.117188 21.527344 C 27.484375 20.941406 26.625 20.167969 25.734375 19.433594 C 25.289062 19.066406 24.835938 18.707031 24.394531 18.386719 C 24.175781 18.230469 23.964844 18.078125 23.757812 17.9375 C 23.554688 17.796875 23.351562 17.671875 23.171875 17.554688 C 22.433594 17.09375 21.910156 16.847656 21.894531 16.875 C 21.890625 16.878906 21.898438 16.886719 21.90625 16.894531 C 21.878906 16.878906 21.855469 16.863281 21.828125 16.84375 C 21.601562 16.691406 21.347656 16.535156 21.078125 16.375 C 20.808594 16.210938 20.515625 16.058594 20.214844 15.894531 C 19.90625 15.738281 19.59375 15.574219 19.261719 15.425781 C 18.9375 15.269531 18.597656 15.132812 18.261719 14.992188 C 17.917969 14.863281 17.578125 14.726562 17.234375 14.617188 C 17.035156 14.546875 16.839844 14.488281 16.640625 14.429688 C 16.726562 14.449219 16.804688 14.464844 16.878906 14.480469 C 16.882812 14.480469 16.882812 14.480469 16.886719 14.484375 C 17.082031 14.527344 17.285156 14.585938 17.488281 14.648438 C 17.691406 14.710938 17.902344 14.765625 18.113281 14.835938 C 18.527344 14.980469 18.964844 15.121094 19.394531 15.300781 C 19.828125 15.460938 20.253906 15.667969 20.683594 15.859375 C 21.105469 16.074219 21.53125 16.273438 21.929688 16.511719 C 22.339844 16.730469 22.722656 16.984375 23.101562 17.214844 C 23.285156 17.335938 23.460938 17.464844 23.636719 17.582031 C 23.8125 17.703125 23.984375 17.820312 24.144531 17.949219 C 24.304688 18.070312 24.464844 18.1875 24.617188 18.304688 C 24.765625 18.421875 24.90625 18.542969 25.042969 18.65625 C 25.179688 18.769531 25.308594 18.878906 25.433594 18.980469 C 25.550781 19.089844 25.664062 19.195312 25.773438 19.292969 C 25.988281 19.484375 26.171875 19.652344 26.316406 19.804688 C 26.609375 20.09375 26.785156 20.257812 26.792969 20.246094 C 26.804688 20.238281 26.648438 20.058594 26.367188 19.75 C 26.234375 19.59375 26.054688 19.414062 25.847656 19.214844 C 25.742188 19.113281 25.632812 19.003906 25.515625 18.890625 C 25.394531 18.78125 25.265625 18.667969 25.132812 18.550781 C 24.996094 18.433594 24.859375 18.308594 24.710938 18.1875 C 24.5625 18.066406 24.40625 17.941406 24.246094 17.816406 C 24.085938 17.6875 23.917969 17.5625 23.742188 17.4375 C 23.566406 17.316406 23.386719 17.183594 23.203125 17.058594 C 22.828125 16.820312 22.445312 16.558594 22.03125 16.335938 C 21.628906 16.09375 21.199219 15.886719 20.777344 15.667969 C 20.339844 15.472656 19.910156 15.265625 19.472656 15.105469 C 19.039062 14.921875 18.597656 14.785156 18.171875 14.640625 C 17.960938 14.574219 17.746094 14.519531 17.542969 14.457031 C 17.335938 14.398438 17.132812 14.34375 16.929688 14.300781 C 16.730469 14.253906 16.539062 14.210938 16.351562 14.167969 C 16.210938 14.136719 16.074219 14.113281 15.941406 14.089844 C 15.183594 13.886719 14.261719 13.648438 13.332031 13.417969 C 12.789062 13.28125 12.238281 13.140625 11.714844 13.046875 C 11.1875 12.953125 10.683594 12.917969 10.253906 12.953125 C 9.828125 12.984375 9.476562 13.078125 9.246094 13.167969 C 9.011719 13.261719 8.890625 13.339844 8.898438 13.347656 C 8.902344 13.363281 9.035156 13.308594 9.269531 13.246094 C 9.503906 13.183594 9.847656 13.113281 10.261719 13.105469 C 10.679688 13.09375 11.164062 13.140625 11.679688 13.242188 C 12.191406 13.339844 12.734375 13.488281 13.28125 13.625 C 13.597656 13.703125 13.914062 13.78125 14.222656 13.859375 C 14.019531 13.824219 13.824219 13.792969 13.652344 13.773438 C 13.433594 13.742188 13.238281 13.71875 13.078125 13.710938 C 12.761719 13.683594 12.578125 13.679688 12.574219 13.691406 C 12.574219 13.707031 12.753906 13.746094 13.066406 13.796875 C 13.21875 13.820312 13.402344 13.855469 13.613281 13.894531 C 13.550781 13.886719 13.492188 13.875 13.433594 13.867188 C 13.164062 13.832031 12.910156 13.800781 12.675781 13.785156 C 12.660156 13.78125 12.644531 13.78125 12.628906 13.78125 C 12.503906 13.761719 12.382812 13.742188 12.261719 13.726562 C 11.976562 13.691406 11.707031 13.65625 11.453125 13.640625 C 11.203125 13.617188 10.972656 13.609375 10.769531 13.605469 C 10.566406 13.597656 10.386719 13.597656 10.238281 13.605469 C 9.945312 13.613281 9.78125 13.628906 9.78125 13.644531 C 9.78125 13.660156 9.949219 13.679688 10.238281 13.695312 C 10.382812 13.703125 10.558594 13.71875 10.761719 13.734375 C 10.878906 13.742188 11.003906 13.753906 11.136719 13.765625 C 11.121094 13.769531 11.109375 13.773438 11.109375 13.777344 C 11.109375 13.792969 11.265625 13.816406 11.535156 13.84375 C 11.671875 13.855469 11.835938 13.871094 12.023438 13.894531 C 12.160156 13.90625 12.308594 13.921875 12.464844 13.941406 C 12.675781 13.980469 12.894531 14.023438 13.121094 14.0625 C 13.425781 14.132812 13.738281 14.195312 14.054688 14.285156 C 14.371094 14.363281 14.6875 14.464844 15.007812 14.558594 C 15.320312 14.667969 15.636719 14.769531 15.9375 14.894531 C 16.246094 15.003906 16.539062 15.136719 16.828125 15.257812 C 17.105469 15.394531 17.382812 15.515625 17.636719 15.648438 C 17.890625 15.78125 18.128906 15.90625 18.34375 16.03125 C 18.433594 16.078125 18.511719 16.128906 18.59375 16.175781 C 18.421875 16.082031 18.246094 15.988281 18.070312 15.90625 C 17.828125 15.789062 17.582031 15.667969 17.332031 15.5625 L 16.957031 15.398438 L 16.578125 15.25 C 16.328125 15.148438 16.074219 15.058594 15.820312 14.972656 C 15.316406 14.796875 14.808594 14.648438 14.316406 14.523438 C 13.820312 14.398438 13.339844 14.296875 12.878906 14.21875 C 12.648438 14.175781 12.425781 14.144531 12.207031 14.117188 C 11.988281 14.085938 11.78125 14.058594 11.578125 14.042969 C 11.171875 13.996094 10.796875 13.980469 10.46875 13.964844 C 10.136719 13.953125 9.847656 13.957031 9.613281 13.957031 C 9.136719 13.976562 8.867188 13.996094 8.867188 14.011719 C 8.871094 14.027344 9.140625 14.039062 9.613281 14.046875 C 9.847656 14.0625 10.132812 14.078125 10.460938 14.097656 C 10.789062 14.125 11.15625 14.152344 11.558594 14.207031 C 11.757812 14.226562 11.96875 14.257812 12.183594 14.292969 C 12.398438 14.324219 12.621094 14.355469 12.847656 14.40625 C 13.300781 14.488281 13.777344 14.59375 14.265625 14.722656 C 14.753906 14.851562 15.253906 14.996094 15.753906 15.171875 C 16.003906 15.257812 16.253906 15.347656 16.503906 15.449219 L 16.878906 15.59375 L 17.246094 15.753906 C 17.496094 15.859375 17.738281 15.976562 17.976562 16.09375 C 18.222656 16.203125 18.457031 16.332031 18.691406 16.457031 C 19.15625 16.707031 19.605469 16.972656 20.03125 17.242188 C 20.882812 17.785156 21.628906 18.363281 22.261719 18.867188 C 22.894531 19.375 23.40625 19.8125 23.769531 20.117188 C 23.953125 20.265625 24.097656 20.386719 24.195312 20.464844 C 24.226562 20.492188 24.253906 20.515625 24.277344 20.53125 C 24.152344 20.453125 24.019531 20.367188 23.882812 20.277344 C 23.277344 19.878906 22.585938 19.394531 21.847656 18.871094 C 21.113281 18.34375 20.324219 17.777344 19.519531 17.242188 C 18.710938 16.703125 17.871094 16.207031 17.054688 15.804688 C 16.644531 15.605469 16.242188 15.421875 15.851562 15.273438 C 15.464844 15.121094 15.085938 15 14.734375 14.898438 C 14.558594 14.851562 14.390625 14.808594 14.226562 14.769531 C 14.066406 14.734375 13.910156 14.703125 13.765625 14.671875 C 13.753906 14.671875 13.742188 14.667969 13.730469 14.667969 C 13.636719 14.636719 13.542969 14.605469 13.457031 14.578125 C 13.332031 14.542969 13.214844 14.511719 13.109375 14.488281 C 12.898438 14.433594 12.734375 14.390625 12.621094 14.367188 C 12.507812 14.34375 12.445312 14.332031 12.445312 14.339844 C 12.441406 14.347656 12.5 14.371094 12.609375 14.410156 C 12.71875 14.449219 12.878906 14.5 13.085938 14.566406 C 13.105469 14.574219 13.128906 14.578125 13.148438 14.585938 C 13.097656 14.582031 13.050781 14.578125 13.003906 14.574219 C 12.792969 14.550781 12.625 14.554688 12.511719 14.550781 C 12.398438 14.550781 12.335938 14.554688 12.335938 14.5625 C 12.335938 14.570312 12.394531 14.582031 12.507812 14.597656 C 12.621094 14.613281 12.785156 14.625 12.992188 14.664062 C 13.203125 14.691406 13.453125 14.738281 13.742188 14.796875 C 13.746094 14.796875 13.75 14.800781 13.757812 14.800781 C 13.777344 14.808594 13.796875 14.816406 13.816406 14.824219 C 14.097656 14.933594 14.417969 15.042969 14.75 15.199219 C 14.921875 15.273438 15.097656 15.351562 15.277344 15.433594 C 15.460938 15.515625 15.640625 15.613281 15.832031 15.707031 C 16.210938 15.890625 16.601562 16.105469 17.003906 16.332031 C 17.40625 16.558594 17.816406 16.804688 18.230469 17.054688 C 18.640625 17.3125 19.058594 17.574219 19.46875 17.84375 C 20.296875 18.382812 21.113281 18.9375 21.890625 19.445312 C 22.277344 19.703125 22.65625 19.941406 23.015625 20.167969 C 23.378906 20.390625 23.722656 20.59375 24.046875 20.777344 C 24.375 20.953125 24.667969 21.128906 24.945312 21.25 C 25.21875 21.375 25.453125 21.5 25.65625 21.574219 C 25.859375 21.65625 26.019531 21.714844 26.128906 21.753906 C 26.234375 21.792969 26.296875 21.8125 26.296875 21.804688 C 26.300781 21.796875 26.246094 21.769531 26.140625 21.71875 C 26.039062 21.664062 25.886719 21.59375 25.691406 21.503906 C 25.492188 21.417969 25.265625 21.28125 25 21.144531 C 24.730469 21.011719 24.445312 20.828125 24.125 20.644531 C 23.808594 20.453125 23.46875 20.242188 23.113281 20.011719 C 22.757812 19.78125 22.382812 19.539062 22 19.277344 C 21.230469 18.765625 20.417969 18.203125 19.585938 17.664062 C 19.175781 17.390625 18.753906 17.128906 18.339844 16.875 C 18.132812 16.742188 17.921875 16.625 17.71875 16.503906 C 17.511719 16.382812 17.308594 16.261719 17.101562 16.15625 C 16.691406 15.933594 16.296875 15.722656 15.910156 15.546875 C 15.714844 15.457031 15.53125 15.359375 15.347656 15.28125 C 15.265625 15.25 15.195312 15.21875 15.117188 15.1875 C 15.335938 15.261719 15.558594 15.34375 15.785156 15.441406 C 16.171875 15.59375 16.566406 15.777344 16.96875 15.976562 C 17.773438 16.382812 18.601562 16.878906 19.40625 17.410156 C 20.210938 17.9375 21 18.496094 21.746094 19.015625 C 22.488281 19.535156 23.191406 20.007812 23.8125 20.390625 C 24.121094 20.582031 24.410156 20.75 24.664062 20.894531 C 24.925781 21.039062 25.152344 21.160156 25.339844 21.257812 C 25.527344 21.355469 25.683594 21.421875 25.785156 21.46875 C 25.890625 21.511719 25.945312 21.535156 25.949219 21.53125 C 25.953125 21.523438 25.898438 21.492188 25.800781 21.433594 C 25.703125 21.378906 25.558594 21.296875 25.375 21.191406 C 25.191406 21.089844 24.96875 20.957031 24.71875 20.804688 C 24.601562 20.734375 24.480469 20.660156 24.351562 20.578125 C 24.347656 20.566406 24.304688 20.519531 24.21875 20.4375 C 24.125 20.351562 23.992188 20.226562 23.816406 20.0625 C 23.46875 19.742188 22.96875 19.289062 22.347656 18.765625 C 21.726562 18.242188 20.984375 17.648438 20.132812 17.089844 C 19.980469 16.988281 19.820312 16.890625 19.664062 16.792969 C 19.605469 16.746094 19.523438 16.679688 19.417969 16.597656 C 19.300781 16.507812 19.15625 16.40625 18.988281 16.292969 C 18.820312 16.175781 18.628906 16.046875 18.410156 15.917969 C 18.199219 15.78125 17.960938 15.648438 17.710938 15.511719 C 17.457031 15.367188 17.183594 15.238281 16.902344 15.097656 C 16.84375 15.070312 16.785156 15.046875 16.726562 15.019531 C 16.800781 15.035156 16.882812 15.054688 16.976562 15.082031 C 17.15625 15.128906 17.375 15.183594 17.621094 15.265625 C 17.742188 15.300781 17.867188 15.351562 18 15.402344 C 18.164062 15.472656 18.328125 15.542969 18.480469 15.613281 C 18.722656 15.726562 18.953125 15.835938 19.160156 15.941406 C 19.371094 16.042969 19.558594 16.144531 19.722656 16.238281 C 19.785156 16.269531 19.839844 16.300781 19.894531 16.328125 C 20.039062 16.421875 20.191406 16.511719 20.339844 16.609375 C 21.007812 17.042969 21.691406 17.554688 22.351562 18.089844 C 23.015625 18.625 23.664062 19.179688 24.269531 19.707031 C 24.871094 20.234375 25.457031 20.710938 25.984375 21.082031 C 26.511719 21.453125 26.96875 21.730469 27.289062 21.921875 C 27.613281 22.113281 27.800781 22.214844 27.808594 22.203125 C 27.816406 22.191406 27.640625 22.070312 27.328125 21.859375 C 27.019531 21.648438 26.578125 21.351562 26.066406 20.96875 C 25.8125 20.773438 25.539062 20.5625 25.261719 20.324219 C 24.980469 20.089844 24.691406 19.832031 24.394531 19.566406 C 24.132812 19.328125 23.859375 19.089844 23.582031 18.84375 C 23.789062 18.996094 24 19.148438 24.207031 19.304688 C 25.066406 19.941406 25.917969 20.597656 26.546875 21.097656 C 27.179688 21.59375 27.597656 21.933594 27.617188 21.914062 C 27.625 21.902344 27.53125 21.804688 27.359375 21.644531 C 27.1875 21.484375 26.9375 21.257812 26.632812 20.992188 C 26.023438 20.464844 25.1875 19.785156 24.324219 19.144531 C 23.515625 18.542969 22.691406 17.972656 22.027344 17.550781 C 21.507812 17.144531 20.980469 16.761719 20.453125 16.429688 C 20.285156 16.320312 20.113281 16.222656 19.945312 16.121094 C 19.777344 16.027344 19.613281 15.933594 19.445312 15.851562 C 19.117188 15.683594 18.796875 15.535156 18.496094 15.417969 C 18.453125 15.402344 18.414062 15.390625 18.375 15.375 C 18.1875 15.28125 17.992188 15.195312 17.789062 15.101562 C 17.515625 14.988281 17.238281 14.863281 16.945312 14.761719 C 16.707031 14.664062 16.460938 14.585938 16.210938 14.503906 C 16.523438 14.601562 16.847656 14.695312 17.167969 14.808594 C 17.507812 14.917969 17.84375 15.054688 18.183594 15.179688 C 18.519531 15.320312 18.859375 15.453125 19.183594 15.601562 C 19.511719 15.746094 19.824219 15.90625 20.128906 16.050781 C 20.429688 16.210938 20.726562 16.359375 20.996094 16.515625 C 21.269531 16.667969 21.527344 16.8125 21.757812 16.960938 C 21.992188 17.097656 22.203125 17.234375 22.386719 17.355469 C 22.574219 17.472656 22.734375 17.578125 22.867188 17.671875 C 23.128906 17.847656 23.285156 17.949219 23.292969 17.9375 C 23.300781 17.925781 23.160156 17.808594 22.910156 17.609375 C 22.835938 17.550781 22.75 17.484375 22.65625 17.417969 C 22.78125 17.503906 22.921875 17.597656 23.074219 17.703125 C 23.25 17.828125 23.441406 17.957031 23.640625 18.105469 Z M 16.871094 14.964844 C 16.890625 14.96875 16.910156 14.976562 16.925781 14.984375 C 16.773438 14.957031 16.648438 14.949219 16.5625 14.9375 C 16.554688 14.9375 16.550781 14.9375 16.546875 14.9375 C 16.371094 14.859375 16.195312 14.78125 16.011719 14.714844 C 15.886719 14.660156 15.757812 14.613281 15.632812 14.566406 C 15.753906 14.601562 15.871094 14.636719 15.992188 14.671875 C 16.289062 14.765625 16.585938 14.855469 16.871094 14.964844 Z M 16.871094 14.964844 "/></g><path style=" stroke:none;fill-rule:nonzero;fill:#483520;fill-opacity:1;" d="M 26.210938 16.539062 C 26.191406 16.5625 26.542969 16.871094 27.035156 17.363281 C 27.160156 17.488281 27.292969 17.625 27.429688 17.769531 C 27.570312 17.910156 27.707031 18.070312 27.855469 18.230469 C 28.144531 18.554688 28.441406 18.914062 28.730469 19.28125 C 29.011719 19.648438 29.28125 20.027344 29.527344 20.386719 C 29.644531 20.570312 29.761719 20.746094 29.867188 20.914062 C 29.972656 21.085938 30.074219 21.246094 30.160156 21.398438 C 30.339844 21.695312 30.484375 21.949219 30.585938 22.125 C 30.6875 22.304688 30.753906 22.402344 30.769531 22.394531 C 30.785156 22.386719 30.746094 22.273438 30.667969 22.085938 C 30.585938 21.894531 30.460938 21.632812 30.292969 21.320312 C 30.214844 21.164062 30.117188 21 30.015625 20.824219 C 29.914062 20.648438 29.800781 20.472656 29.683594 20.285156 C 29.441406 19.914062 29.167969 19.535156 28.878906 19.164062 C 28.589844 18.792969 28.28125 18.4375 27.984375 18.113281 C 27.832031 17.957031 27.683594 17.800781 27.539062 17.660156 C 27.394531 17.519531 27.257812 17.386719 27.125 17.269531 C 26.867188 17.03125 26.640625 16.84375 26.476562 16.71875 C 26.316406 16.59375 26.21875 16.527344 26.210938 16.539062 Z M 26.210938 16.539062 "/><path style=" stroke:none;fill-rule:nonzero;fill:#483520;fill-opacity:1;" d="M 27.0625 16.617188 C 26.898438 16.472656 26.800781 16.394531 26.792969 16.40625 C 26.78125 16.414062 26.863281 16.511719 27.011719 16.667969 C 27.160156 16.824219 27.371094 17.050781 27.617188 17.328125 C 27.742188 17.464844 27.871094 17.617188 28.007812 17.777344 C 28.148438 17.9375 28.285156 18.113281 28.433594 18.292969 C 28.71875 18.652344 29.015625 19.050781 29.296875 19.453125 C 29.574219 19.859375 29.839844 20.273438 30.078125 20.667969 C 30.195312 20.867188 30.3125 21.058594 30.414062 21.242188 C 30.515625 21.429688 30.613281 21.605469 30.699219 21.769531 C 30.875 22.09375 31.011719 22.371094 31.113281 22.5625 C 31.214844 22.753906 31.277344 22.859375 31.292969 22.855469 C 31.304688 22.847656 31.269531 22.726562 31.195312 22.523438 C 31.121094 22.320312 31 22.035156 30.839844 21.699219 C 30.761719 21.527344 30.667969 21.347656 30.570312 21.160156 C 30.472656 20.96875 30.359375 20.773438 30.246094 20.570312 C 30.007812 20.167969 29.742188 19.75 29.457031 19.339844 C 29.167969 18.933594 28.863281 18.539062 28.566406 18.183594 C 28.414062 18.007812 28.269531 17.832031 28.125 17.675781 C 27.980469 17.519531 27.84375 17.371094 27.710938 17.238281 C 27.453125 16.972656 27.226562 16.761719 27.0625 16.617188 Z M 27.0625 16.617188 "/><g clip-rule="nonzero" clip-path="url(#c371be1b24)"><path style=" stroke:none;fill-rule:nonzero;fill:#483520;fill-opacity:1;" d="M 27.582031 15.800781 C 27.558594 15.816406 27.832031 16.261719 28.25 16.921875 C 28.667969 17.582031 29.230469 18.457031 29.769531 19.34375 C 30.039062 19.789062 30.316406 20.226562 30.535156 20.660156 C 30.757812 21.089844 30.953125 21.5 31.121094 21.851562 C 31.445312 22.558594 31.675781 23.027344 31.703125 23.015625 C 31.726562 23.007812 31.574219 22.507812 31.265625 21.785156 C 31.113281 21.425781 30.925781 21.007812 30.703125 20.570312 C 30.484375 20.128906 30.207031 19.6875 29.933594 19.242188 C 29.386719 18.355469 28.808594 17.488281 28.363281 16.847656 C 27.914062 16.203125 27.605469 15.785156 27.582031 15.800781 Z M 27.582031 15.800781 "/></g><path style=" stroke:none;fill-rule:nonzero;fill:#483520;fill-opacity:1;" d="M 29.703125 17.285156 C 29.328125 16.742188 29.042969 16.410156 29.027344 16.421875 C 29.003906 16.441406 29.253906 16.796875 29.597656 17.351562 C 29.683594 17.492188 29.773438 17.644531 29.871094 17.804688 C 29.964844 17.964844 30.0625 18.136719 30.160156 18.316406 C 30.359375 18.671875 30.558594 19.058594 30.746094 19.449219 C 30.929688 19.84375 31.101562 20.242188 31.253906 20.621094 C 31.324219 20.8125 31.398438 20.996094 31.460938 21.171875 C 31.527344 21.347656 31.585938 21.511719 31.636719 21.667969 C 31.847656 22.285156 31.972656 22.703125 32.003906 22.695312 C 32.03125 22.6875 31.957031 22.257812 31.773438 21.625 C 31.730469 21.464844 31.675781 21.296875 31.613281 21.117188 C 31.554688 20.9375 31.484375 20.75 31.414062 20.558594 C 31.269531 20.175781 31.09375 19.769531 30.90625 19.375 C 30.71875 18.976562 30.511719 18.589844 30.304688 18.234375 C 30.199219 18.058594 30.101562 17.882812 29.996094 17.726562 C 29.894531 17.566406 29.796875 17.417969 29.703125 17.285156 Z M 29.703125 17.285156 "/><path style=" stroke:none;fill-rule:nonzero;fill:#483520;fill-opacity:1;" d="M 30.082031 17.378906 C 30.058594 17.394531 30.238281 17.714844 30.492188 18.199219 C 30.75 18.6875 31.078125 19.339844 31.378906 20.007812 C 31.675781 20.675781 31.949219 21.355469 32.144531 21.867188 C 32.335938 22.382812 32.46875 22.726562 32.496094 22.71875 C 32.519531 22.710938 32.441406 22.347656 32.273438 21.824219 C 32.105469 21.296875 31.84375 20.605469 31.539062 19.933594 C 31.234375 19.265625 30.886719 18.613281 30.601562 18.140625 C 30.316406 17.667969 30.101562 17.367188 30.082031 17.378906 Z M 30.082031 17.378906 "/><g clip-rule="nonzero" clip-path="url(#dde6df0841)"><path style=" stroke:none;fill-rule:nonzero;fill:#483520;fill-opacity:1;" d="M 32.335938 19.378906 C 32.28125 19.390625 32.480469 20.394531 32.707031 21.394531 C 32.929688 22.394531 33.1875 23.386719 33.242188 23.375 C 33.292969 23.363281 33.097656 22.359375 32.867188 21.359375 C 32.640625 20.359375 32.386719 19.367188 32.335938 19.378906 Z M 32.335938 19.378906 "/></g><path style=" stroke:none;fill-rule:nonzero;fill:#483520;fill-opacity:1;" d="M 31.957031 20.1875 C 32.011719 20.355469 32.070312 20.519531 32.117188 20.6875 C 32.167969 20.851562 32.214844 21.015625 32.253906 21.175781 C 32.335938 21.492188 32.402344 21.792969 32.445312 22.054688 C 32.464844 22.183594 32.488281 22.300781 32.5 22.40625 C 32.515625 22.515625 32.53125 22.605469 32.539062 22.683594 C 32.554688 22.835938 32.570312 22.925781 32.585938 22.925781 C 32.597656 22.925781 32.609375 22.835938 32.613281 22.679688 C 32.617188 22.601562 32.609375 22.507812 32.605469 22.398438 C 32.601562 22.289062 32.589844 22.167969 32.574219 22.035156 C 32.546875 21.769531 32.488281 21.460938 32.414062 21.136719 C 32.375 20.972656 32.332031 20.804688 32.28125 20.640625 C 32.234375 20.46875 32.171875 20.300781 32.117188 20.132812 C 31.882812 19.460938 31.582031 18.8125 31.3125 18.351562 C 31.183594 18.121094 31.0625 17.933594 30.972656 17.808594 C 30.878906 17.679688 30.824219 17.613281 30.8125 17.617188 C 30.800781 17.625 30.839844 17.707031 30.914062 17.84375 C 30.984375 17.980469 31.089844 18.171875 31.207031 18.40625 C 31.449219 18.878906 31.730469 19.523438 31.957031 20.1875 Z M 31.957031 20.1875 "/><g clip-rule="nonzero" clip-path="url(#afb1564942)"><path style=" stroke:none;fill-rule:nonzero;fill:#483520;fill-opacity:1;" d="M 18.875 13.785156 C 18.59375 13.710938 18.316406 13.640625 18.046875 13.574219 C 17.691406 13.503906 17.355469 13.425781 17.027344 13.375 C 16.703125 13.320312 16.394531 13.269531 16.109375 13.238281 C 15.824219 13.199219 15.5625 13.175781 15.328125 13.160156 C 15.214844 13.148438 15.113281 13.140625 15.015625 13.136719 C 14.203125 12.976562 13.4375 12.84375 12.804688 12.75 C 12.316406 12.671875 11.902344 12.621094 11.613281 12.589844 C 11.324219 12.558594 11.160156 12.542969 11.15625 12.554688 C 11.15625 12.570312 11.320312 12.601562 11.605469 12.65625 C 11.890625 12.707031 12.296875 12.78125 12.785156 12.871094 C 13.183594 12.945312 13.636719 13.03125 14.117188 13.125 C 13.296875 13.011719 12.394531 12.890625 11.488281 12.773438 C 11.117188 12.726562 10.734375 12.6875 10.355469 12.699219 C 9.976562 12.710938 9.605469 12.789062 9.269531 12.914062 C 9.152344 12.957031 9.042969 13.003906 8.9375 13.054688 C 8.898438 13.0625 8.859375 13.074219 8.808594 13.089844 C 8.734375 13.109375 8.644531 13.136719 8.542969 13.175781 C 8.441406 13.210938 8.328125 13.253906 8.207031 13.304688 C 8.082031 13.355469 7.953125 13.414062 7.816406 13.480469 C 7.679688 13.546875 7.539062 13.625 7.394531 13.703125 C 7.25 13.789062 7.101562 13.875 6.957031 13.976562 C 6.8125 14.070312 6.671875 14.175781 6.527344 14.28125 C 6.246094 14.5 5.980469 14.734375 5.746094 14.972656 C 5.632812 15.089844 5.519531 15.207031 5.421875 15.324219 C 5.414062 15.332031 5.40625 15.339844 5.398438 15.351562 C 5.289062 15.4375 5.195312 15.511719 5.121094 15.582031 C 4.980469 15.710938 4.902344 15.792969 4.898438 15.8125 C 4.835938 15.863281 4.777344 15.910156 4.722656 15.957031 C 4.609375 16.046875 4.507812 16.140625 4.421875 16.222656 C 4.332031 16.304688 4.257812 16.378906 4.203125 16.445312 C 4.132812 16.519531 4.085938 16.578125 4.058594 16.613281 C 3.914062 16.726562 3.792969 16.832031 3.699219 16.914062 C 3.605469 16.996094 3.546875 17.058594 3.515625 17.09375 C 3.460938 17.132812 3.410156 17.171875 3.355469 17.210938 C 3.171875 17.351562 2.992188 17.5 2.824219 17.648438 C 3.167969 17.316406 3.539062 16.945312 3.910156 16.570312 C 4.511719 15.96875 5.109375 15.359375 5.546875 14.894531 C 5.988281 14.429688 6.273438 14.113281 6.253906 14.09375 C 6.238281 14.078125 5.917969 14.363281 5.457031 14.804688 C 4.992188 15.246094 4.386719 15.839844 3.785156 16.441406 C 3.320312 16.90625 2.863281 17.371094 2.476562 17.769531 C 2.992188 17.15625 3.496094 16.554688 3.875 16.082031 C 4.300781 15.5625 4.578125 15.207031 4.558594 15.191406 C 4.539062 15.175781 4.234375 15.503906 3.785156 16.007812 C 3.335938 16.507812 2.75 17.1875 2.164062 17.871094 C 1.582031 18.550781 1.003906 19.238281 0.582031 19.761719 C 0.324219 20.074219 0.125 20.328125 0.0117188 20.484375 C -0.226562 20.691406 -0.367188 20.84375 -0.351562 20.863281 C -0.332031 20.882812 -0.117188 20.75 0.191406 20.539062 C 0.5 20.328125 0.910156 20.042969 1.324219 19.765625 C 1.628906 19.5625 1.929688 19.367188 2.195312 19.195312 C 2.226562 19.179688 2.261719 19.164062 2.292969 19.152344 C 2.441406 19.089844 2.59375 19.027344 2.75 18.972656 C 2.90625 18.914062 3.070312 18.867188 3.234375 18.816406 C 3.398438 18.773438 3.558594 18.726562 3.722656 18.691406 C 3.886719 18.652344 4.046875 18.625 4.203125 18.597656 C 4.363281 18.574219 4.515625 18.546875 4.660156 18.535156 C 4.804688 18.519531 4.941406 18.507812 5.070312 18.503906 C 5.199219 18.492188 5.3125 18.488281 5.417969 18.488281 C 5.523438 18.484375 5.613281 18.480469 5.6875 18.484375 C 5.835938 18.484375 5.925781 18.476562 5.925781 18.464844 C 5.925781 18.449219 5.839844 18.433594 5.691406 18.414062 C 5.617188 18.402344 5.523438 18.394531 5.421875 18.390625 C 5.316406 18.382812 5.195312 18.378906 5.066406 18.378906 C 4.9375 18.378906 4.796875 18.382812 4.648438 18.394531 C 4.5 18.398438 4.34375 18.421875 4.179688 18.4375 C 4.019531 18.464844 3.855469 18.484375 3.6875 18.523438 C 3.519531 18.554688 3.351562 18.601562 3.183594 18.644531 C 3.089844 18.675781 2.992188 18.703125 2.898438 18.734375 C 2.960938 18.691406 2.996094 18.660156 2.992188 18.652344 C 2.980469 18.628906 2.746094 18.726562 2.410156 18.894531 C 2.332031 18.933594 2.25 18.976562 2.167969 19.023438 C 2.039062 19.082031 1.917969 19.140625 1.804688 19.203125 C 1.675781 19.273438 1.550781 19.34375 1.441406 19.414062 C 1.410156 19.433594 1.382812 19.453125 1.351562 19.472656 C 1.425781 19.394531 1.5 19.316406 1.570312 19.238281 C 1.582031 19.226562 1.59375 19.214844 1.605469 19.199219 C 1.679688 19.15625 1.769531 19.105469 1.871094 19.050781 C 1.988281 18.984375 2.121094 18.914062 2.269531 18.84375 C 2.414062 18.765625 2.574219 18.695312 2.746094 18.621094 C 2.917969 18.542969 3.105469 18.476562 3.296875 18.402344 C 3.488281 18.339844 3.6875 18.265625 3.894531 18.210938 C 4.101562 18.148438 4.316406 18.105469 4.527344 18.054688 C 4.742188 18.015625 4.957031 17.96875 5.167969 17.945312 C 5.382812 17.914062 5.59375 17.902344 5.796875 17.882812 C 6 17.875 6.199219 17.859375 6.386719 17.863281 C 6.574219 17.863281 6.75 17.867188 6.914062 17.878906 C 7.078125 17.886719 7.230469 17.898438 7.363281 17.914062 C 7.496094 17.925781 7.609375 17.9375 7.707031 17.953125 C 7.894531 17.980469 8.007812 17.988281 8.007812 17.976562 C 8.011719 17.964844 7.90625 17.929688 7.71875 17.882812 C 7.625 17.859375 7.507812 17.835938 7.375 17.816406 C 7.242188 17.789062 7.089844 17.765625 6.925781 17.753906 C 6.761719 17.730469 6.578125 17.722656 6.386719 17.714844 C 6.199219 17.703125 5.996094 17.710938 5.789062 17.714844 C 5.578125 17.726562 5.363281 17.734375 5.144531 17.765625 C 4.925781 17.789062 4.707031 17.832031 4.488281 17.871094 C 4.273438 17.921875 4.054688 17.964844 3.84375 18.03125 C 3.632812 18.085938 3.429688 18.164062 3.234375 18.230469 C 3.097656 18.285156 2.96875 18.339844 2.84375 18.394531 C 2.910156 18.359375 2.980469 18.324219 3.058594 18.289062 C 3.144531 18.246094 3.234375 18.203125 3.332031 18.15625 C 3.355469 18.144531 3.378906 18.136719 3.398438 18.125 C 3.519531 18.09375 3.640625 18.058594 3.769531 18.023438 C 4 17.960938 4.25 17.914062 4.503906 17.855469 C 4.761719 17.808594 5.027344 17.753906 5.300781 17.71875 C 5.570312 17.675781 5.847656 17.652344 6.125 17.621094 C 6.402344 17.605469 6.683594 17.582031 6.957031 17.578125 C 7.230469 17.570312 7.5 17.578125 7.761719 17.582031 C 8.023438 17.597656 8.277344 17.605469 8.515625 17.632812 C 8.753906 17.65625 8.980469 17.679688 9.1875 17.710938 C 9.394531 17.738281 9.585938 17.769531 9.753906 17.804688 C 9.921875 17.832031 10.066406 17.859375 10.1875 17.886719 C 10.425781 17.9375 10.566406 17.960938 10.570312 17.945312 C 10.574219 17.933594 10.441406 17.886719 10.203125 17.816406 C 10.085938 17.777344 9.941406 17.738281 9.773438 17.703125 C 9.609375 17.660156 9.417969 17.617188 9.207031 17.582031 C 9 17.539062 8.773438 17.507812 8.53125 17.476562 C 8.292969 17.441406 8.035156 17.429688 7.769531 17.40625 C 7.507812 17.398438 7.234375 17.378906 6.953125 17.386719 C 6.675781 17.382812 6.390625 17.40625 6.109375 17.417969 C 5.828125 17.445312 5.542969 17.46875 5.269531 17.511719 C 5.160156 17.527344 5.054688 17.546875 4.949219 17.566406 C 5.019531 17.542969 5.09375 17.519531 5.167969 17.503906 C 5.457031 17.4375 5.75 17.359375 6.058594 17.316406 C 6.363281 17.257812 6.675781 17.230469 6.988281 17.191406 C 7.300781 17.179688 7.617188 17.152344 7.925781 17.160156 C 8.234375 17.15625 8.539062 17.183594 8.835938 17.203125 C 8.980469 17.214844 9.125 17.238281 9.265625 17.253906 C 9.40625 17.269531 9.546875 17.289062 9.679688 17.316406 C 9.8125 17.34375 9.941406 17.367188 10.066406 17.390625 C 10.191406 17.417969 10.308594 17.453125 10.425781 17.480469 C 10.539062 17.511719 10.652344 17.535156 10.753906 17.566406 C 10.859375 17.597656 10.957031 17.628906 11.046875 17.660156 C 11.230469 17.71875 11.390625 17.769531 11.519531 17.824219 C 11.777344 17.921875 11.929688 17.976562 11.933594 17.960938 C 11.941406 17.949219 11.800781 17.878906 11.546875 17.757812 C 11.421875 17.691406 11.265625 17.628906 11.082031 17.558594 C 10.992188 17.523438 10.894531 17.488281 10.792969 17.449219 C 10.6875 17.414062 10.578125 17.382812 10.460938 17.347656 C 10.347656 17.3125 10.226562 17.273438 10.101562 17.242188 C 9.976562 17.214844 9.84375 17.183594 9.710938 17.152344 C 9.578125 17.117188 9.4375 17.09375 9.292969 17.074219 C 9.152344 17.050781 9.003906 17.023438 8.855469 17.007812 C 8.554688 16.980469 8.246094 16.941406 7.929688 16.941406 C 7.613281 16.921875 7.292969 16.945312 6.96875 16.957031 C 6.648438 16.988281 6.328125 17.011719 6.015625 17.074219 C 5.875 17.09375 5.734375 17.121094 5.597656 17.152344 C 5.617188 17.144531 5.628906 17.140625 5.644531 17.136719 C 5.894531 17.054688 6.164062 16.976562 6.453125 16.917969 C 6.742188 16.855469 7.054688 16.816406 7.378906 16.785156 C 7.699219 16.757812 8.035156 16.75 8.378906 16.757812 C 8.71875 16.773438 9.0625 16.800781 9.40625 16.84375 C 10.789062 17.03125 12.113281 17.507812 13.09375 17.882812 C 13.585938 18.074219 13.992188 18.234375 14.277344 18.347656 C 14.566406 18.460938 14.730469 18.519531 14.734375 18.507812 C 14.742188 18.496094 14.585938 18.414062 14.308594 18.28125 C 14.03125 18.144531 13.632812 17.960938 13.148438 17.753906 C 12.660156 17.542969 12.089844 17.3125 11.460938 17.105469 C 10.832031 16.894531 10.144531 16.714844 9.441406 16.605469 C 9.089844 16.554688 8.734375 16.515625 8.386719 16.507812 C 8.035156 16.5 7.6875 16.507812 7.355469 16.542969 C 7.023438 16.574219 6.703125 16.625 6.40625 16.699219 C 6.105469 16.765625 5.828125 16.859375 5.578125 16.949219 C 5.457031 17 5.335938 17.050781 5.226562 17.097656 C 5.117188 17.152344 5.011719 17.207031 4.917969 17.253906 C 4.828125 17.304688 4.742188 17.355469 4.667969 17.402344 C 4.535156 17.441406 4.402344 17.484375 4.28125 17.539062 C 4.152344 17.589844 4.027344 17.636719 3.90625 17.683594 C 3.785156 17.734375 3.675781 17.792969 3.570312 17.839844 C 3.664062 17.777344 3.769531 17.703125 3.890625 17.621094 C 3.996094 17.546875 4.117188 17.46875 4.238281 17.390625 C 4.308594 17.34375 4.382812 17.296875 4.460938 17.25 C 4.539062 17.214844 4.621094 17.179688 4.699219 17.144531 C 5.164062 16.945312 5.640625 16.769531 6.0625 16.621094 C 5.980469 16.667969 5.914062 16.714844 5.863281 16.75 C 5.773438 16.816406 5.726562 16.851562 5.730469 16.859375 C 5.742188 16.875 5.941406 16.75 6.3125 16.589844 C 6.5 16.511719 6.730469 16.425781 7 16.351562 C 7.269531 16.273438 7.582031 16.210938 7.925781 16.171875 C 8.609375 16.085938 9.421875 16.101562 10.269531 16.261719 C 11.117188 16.421875 12 16.714844 12.855469 17.078125 C 13.710938 17.4375 14.542969 17.859375 15.332031 18.242188 C 16.121094 18.625 16.867188 18.964844 17.527344 19.214844 C 18.183594 19.46875 18.75 19.628906 19.148438 19.71875 C 19.351562 19.761719 19.507812 19.792969 19.617188 19.808594 C 19.726562 19.824219 19.785156 19.828125 19.785156 19.820312 C 19.789062 19.804688 19.5625 19.753906 19.167969 19.644531 C 18.777344 19.53125 18.226562 19.347656 17.582031 19.074219 C 16.941406 18.804688 16.207031 18.445312 15.429688 18.042969 C 14.652344 17.648438 13.820312 17.214844 12.957031 16.839844 C 12.09375 16.464844 11.195312 16.15625 10.316406 16.003906 C 9.441406 15.847656 8.597656 15.851562 7.894531 15.96875 C 7.542969 16.023438 7.226562 16.109375 6.953125 16.203125 C 6.917969 16.214844 6.886719 16.230469 6.851562 16.242188 C 6.765625 16.261719 6.671875 16.285156 6.570312 16.308594 C 6.324219 16.375 6.035156 16.457031 5.734375 16.558594 C 5.976562 16.445312 6.21875 16.335938 6.453125 16.242188 C 6.757812 16.125 7.042969 16.019531 7.289062 15.945312 C 7.785156 15.785156 8.128906 15.707031 8.121094 15.675781 C 8.117188 15.660156 8.03125 15.667969 7.878906 15.6875 C 7.726562 15.707031 7.507812 15.746094 7.253906 15.808594 C 7.125 15.835938 6.988281 15.875 6.839844 15.917969 C 6.695312 15.953125 6.542969 16.007812 6.386719 16.058594 C 6.074219 16.171875 5.75 16.304688 5.429688 16.453125 C 5.113281 16.609375 4.804688 16.78125 4.523438 16.957031 C 4.421875 17.019531 4.328125 17.082031 4.234375 17.144531 C 3.980469 17.261719 3.738281 17.378906 3.507812 17.5 C 3.558594 17.460938 3.609375 17.425781 3.664062 17.386719 C 3.816406 17.277344 3.984375 17.164062 4.160156 17.046875 C 4.335938 16.929688 4.53125 16.816406 4.726562 16.695312 C 4.929688 16.582031 5.136719 16.457031 5.355469 16.347656 C 5.566406 16.230469 5.792969 16.128906 6.015625 16.023438 C 6.097656 15.988281 6.175781 15.953125 6.257812 15.917969 C 6.265625 15.914062 6.273438 15.910156 6.28125 15.90625 C 6.40625 15.871094 6.535156 15.828125 6.667969 15.789062 C 6.9375 15.71875 7.234375 15.648438 7.550781 15.601562 C 7.871094 15.550781 8.207031 15.527344 8.558594 15.515625 C 8.910156 15.507812 9.273438 15.523438 9.640625 15.558594 C 10.003906 15.59375 10.375 15.652344 10.742188 15.730469 C 11.476562 15.890625 12.195312 16.121094 12.851562 16.378906 C 13.511719 16.632812 14.113281 16.910156 14.625 17.15625 C 15.132812 17.40625 15.558594 17.613281 15.855469 17.761719 C 16.152344 17.90625 16.324219 17.988281 16.332031 17.976562 C 16.335938 17.964844 16.175781 17.863281 15.886719 17.699219 C 15.601562 17.535156 15.1875 17.304688 14.679688 17.039062 C 13.828125 16.597656 12.699219 16.054688 11.460938 15.699219 C 11.730469 15.75 11.996094 15.808594 12.265625 15.871094 C 12.699219 15.984375 13.132812 16.113281 13.554688 16.25 C 13.929688 16.378906 14.292969 16.511719 14.644531 16.652344 C 14.839844 16.777344 15.117188 16.949219 15.457031 17.148438 C 16.144531 17.554688 17.074219 18.074219 18.007812 18.582031 C 18.476562 18.835938 18.945312 19.089844 19.386719 19.324219 C 19.828125 19.558594 20.242188 19.773438 20.597656 19.957031 C 21.304688 20.320312 21.785156 20.554688 21.800781 20.527344 C 21.816406 20.5 21.363281 20.21875 20.675781 19.8125 C 20.328125 19.609375 19.929688 19.375 19.492188 19.128906 C 19.058594 18.886719 18.59375 18.625 18.128906 18.363281 C 17.519531 18.027344 16.910156 17.695312 16.359375 17.402344 C 16.546875 17.492188 16.726562 17.582031 16.894531 17.664062 C 17.199219 17.820312 17.476562 17.964844 17.722656 18.089844 C 17.96875 18.21875 18.183594 18.332031 18.359375 18.425781 C 18.710938 18.609375 18.914062 18.714844 18.921875 18.699219 C 18.929688 18.6875 18.742188 18.558594 18.40625 18.347656 C 18.066406 18.132812 17.578125 17.839844 16.980469 17.503906 C 16.679688 17.339844 16.355469 17.164062 16.003906 16.988281 C 15.65625 16.804688 15.277344 16.628906 14.886719 16.453125 C 14.101562 16.105469 13.238281 15.785156 12.347656 15.546875 C 11.902344 15.433594 11.449219 15.335938 11.003906 15.265625 C 10.554688 15.203125 10.109375 15.15625 9.675781 15.136719 C 9.304688 15.125 8.949219 15.125 8.605469 15.144531 C 8.761719 15.105469 8.910156 15.074219 9.042969 15.046875 C 9.050781 15.046875 9.058594 15.046875 9.066406 15.042969 C 9.304688 15.027344 9.546875 15.003906 9.78125 14.996094 C 10.019531 14.980469 10.25 14.976562 10.476562 14.972656 C 10.703125 14.972656 10.921875 14.96875 11.125 14.976562 C 11.320312 14.980469 11.503906 14.984375 11.671875 14.992188 C 11.714844 15.003906 11.757812 15.011719 11.800781 15.023438 C 12.144531 15.109375 12.515625 15.207031 12.902344 15.332031 C 13.289062 15.449219 13.695312 15.589844 14.109375 15.742188 C 14.9375 16.054688 15.800781 16.4375 16.644531 16.867188 C 18.328125 17.722656 19.929688 18.738281 21.125 19.507812 C 21.722656 19.894531 22.21875 20.21875 22.566406 20.441406 C 22.914062 20.667969 23.117188 20.792969 23.125 20.78125 C 23.132812 20.769531 22.945312 20.625 22.609375 20.382812 C 22.273438 20.136719 21.789062 19.792969 21.203125 19.386719 C 20.03125 18.582031 18.441406 17.53125 16.742188 16.667969 C 15.894531 16.238281 15.019531 15.851562 14.179688 15.546875 C 13.761719 15.394531 13.351562 15.257812 12.957031 15.144531 C 12.855469 15.113281 12.753906 15.089844 12.652344 15.0625 C 12.820312 15.074219 12.914062 15.078125 12.917969 15.066406 C 12.917969 15.050781 12.800781 15.023438 12.589844 14.984375 C 12.488281 14.964844 12.359375 14.945312 12.214844 14.925781 C 12.144531 14.914062 12.074219 14.90625 12 14.894531 C 11.949219 14.882812 11.890625 14.867188 11.839844 14.855469 C 11.488281 14.78125 11.167969 14.722656 10.878906 14.679688 C 10.695312 14.65625 10.527344 14.632812 10.371094 14.617188 C 10.402344 14.621094 10.433594 14.625 10.464844 14.625 C 10.707031 14.644531 10.957031 14.679688 11.21875 14.707031 C 11.476562 14.75 11.746094 14.78125 12.015625 14.835938 C 12.289062 14.878906 12.5625 14.941406 12.835938 15 C 13.105469 15.066406 13.378906 15.125 13.644531 15.203125 C 13.910156 15.273438 14.167969 15.359375 14.421875 15.433594 C 14.667969 15.519531 14.910156 15.597656 15.136719 15.6875 C 15.359375 15.769531 15.574219 15.851562 15.765625 15.933594 C 15.960938 16.011719 16.136719 16.089844 16.292969 16.164062 C 16.449219 16.230469 16.585938 16.292969 16.695312 16.34375 C 16.917969 16.449219 17.050781 16.503906 17.054688 16.492188 C 17.0625 16.480469 16.945312 16.40625 16.730469 16.28125 C 16.625 16.21875 16.492188 16.148438 16.339844 16.070312 C 16.1875 15.988281 16.011719 15.902344 15.820312 15.816406 C 15.628906 15.722656 15.414062 15.632812 15.191406 15.542969 C 14.96875 15.445312 14.726562 15.363281 14.476562 15.269531 C 14.222656 15.1875 13.964844 15.097656 13.695312 15.023438 C 13.429688 14.941406 13.152344 14.875 12.878906 14.804688 C 12.601562 14.75 12.328125 14.683594 12.050781 14.640625 C 11.777344 14.589844 11.503906 14.554688 11.242188 14.519531 C 10.976562 14.492188 10.722656 14.460938 10.480469 14.449219 C 10.238281 14.433594 10.007812 14.421875 9.792969 14.421875 C 9.582031 14.414062 9.386719 14.417969 9.214844 14.425781 C 9.210938 14.425781 9.207031 14.425781 9.199219 14.425781 C 9.328125 14.390625 9.441406 14.359375 9.53125 14.339844 C 9.5625 14.332031 9.589844 14.324219 9.617188 14.316406 C 9.914062 14.300781 10.207031 14.296875 10.488281 14.304688 C 10.902344 14.320312 11.285156 14.355469 11.617188 14.390625 C 12.273438 14.464844 12.714844 14.519531 12.71875 14.488281 C 12.722656 14.464844 12.289062 14.367188 11.632812 14.261719 C 11.300781 14.210938 10.917969 14.160156 10.496094 14.132812 C 10.082031 14.105469 9.628906 14.09375 9.183594 14.140625 C 8.933594 14.164062 8.6875 14.207031 8.445312 14.261719 C 8.363281 14.277344 8.28125 14.292969 8.191406 14.308594 C 8.023438 14.339844 7.851562 14.390625 7.671875 14.433594 C 7.496094 14.488281 7.308594 14.539062 7.128906 14.605469 C 6.941406 14.667969 6.761719 14.746094 6.578125 14.820312 C 6.398438 14.90625 6.21875 14.984375 6.050781 15.078125 C 6.15625 15.011719 6.261719 14.949219 6.378906 14.882812 C 6.550781 14.78125 6.742188 14.6875 6.9375 14.585938 C 7.136719 14.492188 7.339844 14.386719 7.554688 14.300781 C 7.765625 14.207031 7.988281 14.128906 8.207031 14.046875 C 8.433594 13.972656 8.652344 13.894531 8.878906 13.835938 C 9.101562 13.765625 9.324219 13.71875 9.535156 13.667969 C 9.753906 13.625 9.960938 13.578125 10.160156 13.550781 C 10.363281 13.519531 10.550781 13.488281 10.726562 13.472656 C 10.902344 13.449219 11.0625 13.433594 11.207031 13.425781 C 11.351562 13.414062 11.476562 13.402344 11.578125 13.402344 C 11.785156 13.390625 11.90625 13.378906 11.90625 13.367188 C 11.90625 13.351562 11.789062 13.339844 11.578125 13.328125 C 11.476562 13.320312 11.347656 13.320312 11.203125 13.324219 C 11.058594 13.320312 10.894531 13.324219 10.714844 13.339844 C 10.535156 13.347656 10.34375 13.367188 10.140625 13.394531 C 9.933594 13.417969 9.722656 13.460938 9.5 13.496094 C 9.28125 13.546875 9.054688 13.589844 8.828125 13.65625 C 8.601562 13.714844 8.375 13.792969 8.144531 13.863281 C 7.949219 13.9375 7.753906 14.011719 7.5625 14.089844 C 7.597656 14.066406 7.636719 14.039062 7.671875 14.011719 C 8.132812 13.691406 8.679688 13.320312 9.328125 13.078125 C 9.652344 12.957031 10 12.886719 10.363281 12.878906 C 10.726562 12.867188 11.097656 12.902344 11.46875 12.949219 C 12.960938 13.140625 14.453125 13.320312 15.574219 13.449219 C 15.640625 13.457031 15.707031 13.464844 15.769531 13.46875 C 15.964844 13.511719 16.160156 13.554688 16.355469 13.601562 C 17.644531 13.894531 18.925781 14.226562 19.886719 14.484375 C 20.367188 14.613281 20.765625 14.722656 21.046875 14.796875 C 21.328125 14.871094 21.488281 14.90625 21.492188 14.890625 C 21.5 14.878906 21.34375 14.816406 21.070312 14.71875 C 20.796875 14.621094 20.402344 14.492188 19.925781 14.347656 C 19.277344 14.148438 18.472656 13.925781 17.617188 13.714844 C 17.871094 13.765625 18.191406 13.832031 18.570312 13.910156 C 18.675781 13.929688 18.785156 13.953125 18.898438 13.976562 C 18.953125 13.992188 19.011719 14.007812 19.070312 14.023438 C 19.433594 14.121094 19.792969 14.246094 20.15625 14.363281 C 20.511719 14.496094 20.875 14.617188 21.21875 14.761719 C 21.570312 14.894531 21.90625 15.050781 22.234375 15.191406 C 22.554688 15.347656 22.871094 15.488281 23.160156 15.644531 C 23.449219 15.792969 23.722656 15.9375 23.972656 16.082031 C 24.222656 16.21875 24.449219 16.351562 24.644531 16.472656 C 24.78125 16.554688 24.902344 16.625 25.011719 16.695312 C 25.117188 16.800781 25.226562 16.914062 25.351562 17.039062 C 25.9375 17.636719 26.703125 18.449219 27.433594 19.296875 C 27.796875 19.71875 28.15625 20.148438 28.484375 20.558594 C 28.808594 20.96875 29.109375 21.351562 29.363281 21.6875 C 29.867188 22.355469 30.191406 22.8125 30.214844 22.796875 C 30.226562 22.789062 30.15625 22.667969 30.03125 22.457031 C 29.953125 22.335938 29.855469 22.183594 29.742188 22.011719 C 29.722656 21.964844 29.703125 21.910156 29.675781 21.851562 C 29.632812 21.742188 29.570312 21.613281 29.496094 21.464844 C 29.425781 21.316406 29.34375 21.152344 29.242188 20.976562 C 29.148438 20.796875 29.039062 20.605469 28.921875 20.40625 C 28.804688 20.207031 28.667969 20.003906 28.53125 19.789062 C 28.386719 19.582031 28.242188 19.363281 28.082031 19.148438 C 27.929688 18.933594 27.757812 18.722656 27.589844 18.511719 C 27.417969 18.304688 27.246094 18.09375 27.066406 17.898438 C 26.890625 17.699219 26.707031 17.511719 26.535156 17.328125 C 26.351562 17.152344 26.183594 16.976562 26.007812 16.820312 C 25.839844 16.664062 25.675781 16.515625 25.519531 16.386719 C 25.367188 16.253906 25.222656 16.140625 25.09375 16.039062 C 24.964844 15.9375 24.851562 15.847656 24.753906 15.78125 C 24.5625 15.644531 24.449219 15.570312 24.441406 15.582031 C 24.433594 15.59375 24.53125 15.683594 24.710938 15.835938 C 24.800781 15.914062 24.90625 16.007812 25.03125 16.117188 C 25.152344 16.222656 25.289062 16.34375 25.4375 16.484375 C 25.585938 16.617188 25.742188 16.769531 25.90625 16.929688 C 26.074219 17.089844 26.238281 17.265625 26.414062 17.445312 C 26.582031 17.628906 26.761719 17.816406 26.933594 18.019531 C 27.109375 18.214844 27.277344 18.421875 27.449219 18.628906 C 27.613281 18.839844 27.78125 19.046875 27.933594 19.261719 C 28.09375 19.46875 28.238281 19.683594 28.382812 19.890625 C 28.519531 20.097656 28.660156 20.296875 28.777344 20.492188 C 28.902344 20.6875 29.015625 20.871094 29.117188 21.046875 C 29.195312 21.175781 29.261719 21.292969 29.324219 21.40625 C 28.859375 20.746094 28.242188 19.941406 27.582031 19.167969 C 26.890625 18.367188 26.164062 17.605469 25.570312 17.039062 C 25.59375 17.050781 25.609375 17.058594 25.613281 17.054688 C 25.617188 17.046875 25.546875 16.988281 25.410156 16.890625 C 24.824219 16.335938 24.40625 16 24.386719 16.019531 C 24.375 16.035156 24.507812 16.179688 24.738281 16.414062 C 24.726562 16.40625 24.710938 16.398438 24.699219 16.390625 C 24.503906 16.257812 24.28125 16.117188 24.035156 15.972656 C 23.789062 15.820312 23.515625 15.667969 23.226562 15.511719 C 22.9375 15.351562 22.625 15.203125 22.300781 15.042969 C 21.972656 14.898438 21.636719 14.738281 21.285156 14.601562 C 21.144531 14.542969 21.003906 14.488281 20.863281 14.433594 C 21.210938 14.523438 21.570312 14.617188 21.925781 14.714844 C 23.132812 15.058594 24.324219 15.449219 25.210938 15.777344 C 25.652344 15.933594 26.019531 16.078125 26.277344 16.171875 C 26.535156 16.269531 26.6875 16.320312 26.691406 16.304688 C 26.695312 16.292969 26.558594 16.21875 26.308594 16.101562 C 26.058594 15.980469 25.699219 15.820312 25.261719 15.640625 C 25.046875 15.546875 24.804688 15.453125 24.554688 15.355469 C 24.300781 15.257812 24.03125 15.164062 23.753906 15.0625 C 23.195312 14.867188 22.59375 14.675781 21.984375 14.5 C 20.886719 14.1875 19.769531 13.9375 18.875 13.785156 Z M 6.21875 15.523438 C 6.199219 15.550781 6.175781 15.574219 6.160156 15.597656 C 5.996094 15.65625 5.847656 15.714844 5.722656 15.769531 C 5.714844 15.773438 5.707031 15.777344 5.695312 15.78125 C 5.855469 15.699219 6.015625 15.613281 6.183594 15.535156 C 6.195312 15.53125 6.207031 15.527344 6.21875 15.523438 Z M 5.277344 15.796875 C 5.234375 15.820312 5.191406 15.847656 5.148438 15.871094 C 5.164062 15.855469 5.179688 15.839844 5.191406 15.824219 C 5.199219 15.820312 5.203125 15.816406 5.207031 15.8125 C 5.242188 15.789062 5.277344 15.765625 5.3125 15.742188 C 5.332031 15.742188 5.359375 15.738281 5.390625 15.730469 C 5.355469 15.753906 5.3125 15.773438 5.277344 15.796875 Z M 2.136719 18.3125 C 2.058594 18.394531 1.980469 18.476562 1.890625 18.566406 C 1.855469 18.589844 1.824219 18.609375 1.808594 18.621094 C 1.902344 18.535156 2.011719 18.429688 2.136719 18.3125 Z M 1.402344 19.078125 C 1.265625 19.214844 1.132812 19.351562 1.007812 19.484375 C 1.1875 19.277344 1.382812 19.050781 1.585938 18.816406 C 1.640625 18.769531 1.707031 18.710938 1.789062 18.636719 C 1.789062 18.640625 1.785156 18.640625 1.789062 18.644531 C 1.789062 18.648438 1.800781 18.648438 1.820312 18.644531 C 1.683594 18.78125 1.542969 18.929688 1.402344 19.078125 Z M 2.199219 18.714844 C 2.066406 18.785156 1.949219 18.859375 1.84375 18.925781 C 1.960938 18.789062 2.074219 18.65625 2.171875 18.53125 C 2.28125 18.488281 2.417969 18.441406 2.578125 18.386719 C 2.59375 18.382812 2.613281 18.375 2.628906 18.371094 C 2.605469 18.386719 2.578125 18.40625 2.554688 18.421875 C 2.328125 18.585938 2.203125 18.683594 2.214844 18.699219 C 2.214844 18.703125 2.21875 18.703125 2.222656 18.703125 C 2.214844 18.707031 2.207031 18.710938 2.199219 18.714844 Z M 3.539062 17.683594 C 3.449219 17.765625 3.367188 17.839844 3.308594 17.902344 C 3.269531 17.941406 3.242188 17.972656 3.214844 18.003906 C 3.167969 18.019531 3.117188 18.035156 3.070312 18.050781 C 2.867188 18.121094 2.6875 18.191406 2.527344 18.261719 C 2.46875 18.285156 2.417969 18.308594 2.367188 18.332031 C 2.394531 18.304688 2.429688 18.273438 2.460938 18.246094 C 2.578125 18.183594 2.710938 18.113281 2.867188 18.03125 C 3.066406 17.921875 3.292969 17.804688 3.539062 17.683594 Z M 5.265625 16.175781 C 5.152344 16.234375 5.042969 16.292969 4.9375 16.355469 C 5.144531 16.214844 5.269531 16.125 5.261719 16.109375 C 5.25 16.089844 5.082031 16.152344 4.824219 16.28125 C 4.835938 16.273438 4.847656 16.265625 4.859375 16.257812 C 4.960938 16.195312 5.070312 16.132812 5.179688 16.066406 C 5.203125 16.066406 5.253906 16.054688 5.328125 16.03125 C 5.429688 16.003906 5.578125 15.949219 5.769531 15.902344 C 5.808594 15.890625 5.855469 15.878906 5.898438 15.867188 C 5.683594 15.96875 5.46875 16.066406 5.265625 16.175781 Z M 7.601562 15.246094 C 7.507812 15.261719 7.410156 15.277344 7.320312 15.292969 C 7.152344 15.328125 6.988281 15.363281 6.835938 15.398438 C 6.683594 15.441406 6.539062 15.480469 6.402344 15.515625 C 6.378906 15.523438 6.355469 15.53125 6.332031 15.539062 C 6.351562 15.523438 6.375 15.503906 6.398438 15.484375 C 6.417969 15.476562 6.4375 15.472656 6.457031 15.46875 C 6.632812 15.425781 6.824219 15.386719 7.027344 15.34375 C 7.226562 15.300781 7.445312 15.265625 7.664062 15.222656 C 7.679688 15.222656 7.695312 15.21875 7.710938 15.21875 C 7.675781 15.226562 7.640625 15.238281 7.601562 15.246094 Z M 9.214844 14.550781 C 9.359375 14.554688 9.519531 14.5625 9.6875 14.570312 C 9.675781 14.570312 9.664062 14.570312 9.652344 14.570312 C 9.539062 14.566406 9.480469 14.570312 9.480469 14.578125 C 9.480469 14.585938 9.539062 14.597656 9.648438 14.617188 C 9.757812 14.636719 9.917969 14.652344 10.121094 14.6875 C 10.304688 14.71875 10.523438 14.753906 10.769531 14.800781 C 10.671875 14.796875 10.574219 14.796875 10.476562 14.792969 C 10.019531 14.789062 9.535156 14.804688 9.046875 14.847656 C 8.5625 14.890625 8.082031 14.957031 7.632812 15.039062 C 7.410156 15.085938 7.191406 15.125 6.988281 15.175781 C 6.976562 15.179688 6.964844 15.183594 6.953125 15.1875 C 7.203125 15.078125 7.457031 14.976562 7.699219 14.890625 C 7.890625 14.824219 8.078125 14.753906 8.257812 14.699219 C 8.4375 14.640625 8.605469 14.585938 8.765625 14.542969 C 8.773438 14.542969 8.777344 14.539062 8.785156 14.539062 C 8.90625 14.539062 9.050781 14.542969 9.214844 14.550781 Z M 8.664062 14.433594 C 8.601562 14.449219 8.539062 14.464844 8.46875 14.480469 C 8.417969 14.488281 8.386719 14.496094 8.386719 14.503906 C 8.328125 14.519531 8.273438 14.535156 8.214844 14.550781 C 8.089844 14.582031 7.964844 14.621094 7.835938 14.664062 C 7.875 14.648438 7.914062 14.632812 7.957031 14.617188 C 8.179688 14.542969 8.421875 14.484375 8.664062 14.433594 Z M 6.140625 15.261719 C 6.308594 15.171875 6.484375 15.09375 6.660156 15.007812 C 6.753906 14.96875 6.847656 14.929688 6.941406 14.890625 C 6.914062 14.90625 6.882812 14.925781 6.855469 14.945312 C 6.777344 15 6.707031 15.054688 6.640625 15.105469 C 6.570312 15.136719 6.5 15.167969 6.429688 15.199219 C 6.199219 15.304688 5.972656 15.417969 5.75 15.535156 C 5.6875 15.554688 5.632812 15.578125 5.582031 15.597656 C 5.542969 15.613281 5.507812 15.628906 5.472656 15.640625 C 5.53125 15.605469 5.589844 15.570312 5.648438 15.53125 C 5.808594 15.441406 5.96875 15.347656 6.140625 15.261719 Z M 7.589844 13.894531 C 7.351562 14.070312 7.140625 14.230469 6.949219 14.371094 C 6.917969 14.386719 6.886719 14.402344 6.855469 14.417969 C 6.65625 14.523438 6.464844 14.625 6.289062 14.734375 C 6.257812 14.753906 6.230469 14.769531 6.203125 14.789062 C 6.34375 14.664062 6.488281 14.542969 6.636719 14.425781 C 6.777344 14.324219 6.914062 14.214844 7.058594 14.121094 C 7.195312 14.023438 7.339844 13.933594 7.476562 13.84375 C 7.617188 13.765625 7.75 13.679688 7.882812 13.609375 C 8.015625 13.539062 8.136719 13.472656 8.257812 13.417969 C 8.289062 13.402344 8.320312 13.386719 8.351562 13.371094 C 8.070312 13.542969 7.816406 13.726562 7.589844 13.894531 Z M 16.394531 13.425781 C 16.382812 13.421875 16.375 13.421875 16.367188 13.417969 C 16.570312 13.449219 16.777344 13.488281 17 13.53125 C 17.066406 13.539062 17.132812 13.558594 17.199219 13.570312 C 17.179688 13.570312 17.160156 13.566406 17.144531 13.566406 C 17.082031 13.558594 17.015625 13.546875 16.9375 13.535156 C 16.878906 13.523438 16.8125 13.515625 16.742188 13.503906 C 16.625 13.476562 16.511719 13.449219 16.394531 13.425781 Z M 16.394531 13.425781 "/></g></g></svg>