<svg xmlns="http://www.w3.org/2000/svg" xmlns:xlink="http://www.w3.org/1999/xlink" width="48" zoomAndPan="magnify" viewBox="0 0 36 43.92" height="48" preserveAspectRatio="xMidYMid meet" version="1.2"><defs><clipPath id="6a354b7187"><path d="M 2.699219 1 L 33.390625 1 L 33.390625 35 L 2.699219 35 Z M 2.699219 1 "/></clipPath></defs><g id="fa56043200"><g clip-rule="nonzero" clip-path="url(#6a354b7187)"><path style=" stroke:none;fill-rule:evenodd;fill:#6b4d2b;fill-opacity:1;" d="M 31.625 21.296875 C 31.296875 20.949219 31.113281 20.492188 31.011719 20.027344 C 31.011719 20.023438 31.011719 20.019531 31.011719 20.015625 L 31.007812 20.015625 C 30.996094 19.964844 30.984375 19.914062 30.976562 19.867188 C 30.894531 19.285156 29.992188 19.296875 29.925781 19.886719 C 29.917969 19.929688 29.910156 19.972656 29.898438 20.015625 C 29.898438 20.015625 29.898438 20.019531 29.898438 20.023438 C 29.742188 20.703125 29.503906 21.390625 28.96875 21.859375 C 28.890625 21.949219 28.78125 21.996094 28.683594 22.054688 C 28.621094 22.121094 28.574219 22.210938 28.484375 22.242188 C 28.414062 22.289062 28.382812 22.355469 28.296875 22.394531 C 28.230469 22.429688 28.242188 22.507812 28.195312 22.550781 C 28.289062 22.5 28.4375 22.488281 28.515625 22.574219 C 28.527344 22.585938 28.542969 22.589844 28.558594 22.59375 C 29.367188 22.625 30.003906 22.160156 30.429688 21.523438 C 30.695312 21.945312 31.050781 22.3125 31.464844 22.585938 C 31.027344 22.914062 30.664062 23.355469 30.417969 23.855469 C 29.984375 23.121094 29.269531 22.597656 28.339844 22.59375 C 28.34375 22.617188 28.386719 22.625 28.386719 22.652344 C 28.324219 22.679688 28.269531 22.644531 28.332031 22.703125 C 28.238281 22.671875 28.179688 22.601562 28.097656 22.550781 C 28.125 22.757812 28.375 22.917969 28.574219 22.964844 C 28.613281 22.988281 28.703125 23.027344 28.71875 23.074219 C 28.742188 23.144531 28.839844 23.140625 28.894531 23.179688 C 29.09375 23.3125 29.230469 23.523438 29.390625 23.695312 C 29.5 23.871094 29.585938 24.0625 29.695312 24.246094 C 29.851562 24.550781 29.933594 24.890625 29.976562 25.226562 C 30.050781 25.738281 30.84375 25.753906 30.929688 25.234375 C 31 24.796875 31.164062 24.371094 31.433594 24.019531 C 31.992188 23.144531 33.039062 23.210938 33.144531 22.6875 C 33.300781 21.84375 32.21875 22.113281 31.625 21.296875 Z M 10.445312 4.617188 C 10.484375 4.640625 10.578125 4.679688 10.589844 4.726562 C 10.613281 4.796875 10.710938 4.792969 10.765625 4.832031 C 10.964844 4.960938 11.101562 5.175781 11.261719 5.347656 C 11.371094 5.523438 11.457031 5.714844 11.566406 5.898438 C 11.722656 6.203125 11.804688 6.542969 11.851562 6.878906 C 11.921875 7.390625 12.71875 7.40625 12.800781 6.886719 C 12.871094 6.449219 13.035156 6.023438 13.304688 5.671875 C 13.863281 4.796875 14.910156 4.863281 15.015625 4.339844 C 15.171875 3.496094 14.089844 3.765625 13.5 2.949219 C 13.167969 2.601562 12.984375 2.144531 12.882812 1.679688 C 12.882812 1.675781 12.882812 1.671875 12.882812 1.667969 L 12.878906 1.667969 C 12.867188 1.617188 12.859375 1.566406 12.847656 1.519531 C 12.765625 0.9375 11.863281 0.949219 11.800781 1.539062 C 11.789062 1.582031 11.78125 1.625 11.773438 1.667969 L 11.769531 1.667969 C 11.769531 1.667969 11.769531 1.671875 11.769531 1.675781 C 11.613281 2.355469 11.375 3.042969 10.839844 3.507812 C 10.765625 3.601562 10.652344 3.648438 10.554688 3.707031 C 10.492188 3.773438 10.449219 3.863281 10.359375 3.894531 C 10.289062 3.9375 10.253906 4.007812 10.171875 4.046875 C 10.101562 4.082031 10.117188 4.160156 10.066406 4.203125 C 10.164062 4.152344 10.3125 4.140625 10.386719 4.226562 C 10.398438 4.238281 10.417969 4.242188 10.433594 4.246094 C 11.238281 4.277344 11.875 3.8125 12.300781 3.175781 C 12.570312 3.597656 12.921875 3.960938 13.339844 4.234375 C 12.898438 4.566406 12.539062 5.007812 12.289062 5.507812 C 11.855469 4.773438 11.140625 4.25 10.210938 4.246094 C 10.214844 4.269531 10.257812 4.277344 10.261719 4.304688 C 10.195312 4.332031 10.140625 4.296875 10.203125 4.355469 C 10.109375 4.324219 10.050781 4.253906 9.96875 4.203125 C 9.996094 4.410156 10.246094 4.570312 10.445312 4.617188 Z M 16.699219 27.589844 C 16.441406 27.539062 16.199219 27.429688 15.964844 27.324219 C 15.773438 27.167969 15.53125 27.078125 15.277344 27.042969 C 15.1875 27.039062 15.117188 26.960938 15.027344 27 C 15.011719 27.070312 14.964844 27.035156 14.957031 27.078125 C 14.925781 27.074219 14.921875 27.058594 14.886719 27.070312 C 14.816406 27.179688 14.871094 27.210938 14.921875 27.300781 C 14.925781 27.304688 14.929688 27.308594 14.917969 27.324219 C 14.890625 27.378906 15 27.378906 15.007812 27.433594 C 15.277344 28.078125 16.378906 28.71875 17.097656 28.621094 C 17.742188 28.59375 18.71875 28.25 18.945312 27.613281 C 19.015625 27.539062 19.046875 27.449219 19.09375 27.363281 C 19.113281 27.335938 19.152344 27.3125 19.136719 27.277344 C 19.097656 27.203125 19.15625 27.183594 19.125 27.125 C 19.109375 27.105469 19.109375 27.09375 19.113281 27.085938 C 19.117188 27.0625 19.082031 27.027344 19.085938 27.011719 C 19.007812 27.003906 18.898438 26.925781 18.808594 26.925781 C 18.535156 26.933594 18.261719 26.980469 18.050781 27.167969 C 17.625 27.378906 17.191406 27.636719 16.699219 27.589844 Z M 21.386719 21.421875 C 21.308594 21.425781 21.191406 21.375 21.101562 21.390625 C 20.84375 21.453125 20.585938 21.550781 20.4375 21.78125 C 20.164062 21.984375 19.925781 22.347656 19.554688 22.316406 C 19.21875 22.25 18.957031 21.972656 18.734375 21.738281 C 18.597656 21.589844 18.375 21.554688 18.207031 21.449219 C 18.042969 21.363281 18.117188 21.460938 18.039062 21.460938 C 18.023438 21.460938 18.007812 21.472656 18.003906 21.484375 C 17.976562 21.472656 17.976562 21.457031 17.941406 21.464844 C 17.804688 21.597656 17.953125 21.613281 17.910156 21.707031 C 17.871094 21.738281 17.933594 21.753906 17.945312 21.777344 C 17.984375 21.8125 17.964844 21.878906 17.984375 21.921875 C 17.996094 21.992188 18.054688 22.054688 18.054688 22.121094 C 18.023438 22.179688 18.085938 22.183594 18.09375 22.230469 C 18.464844 22.804688 19.042969 23.449219 19.789062 23.347656 C 20.429688 23.339844 21.371094 22.652344 21.398438 22.007812 C 21.460938 21.90625 21.453125 21.789062 21.503906 21.6875 C 21.496094 21.648438 21.449219 21.589844 21.46875 21.5625 C 21.476562 21.53125 21.425781 21.519531 21.429688 21.488281 C 21.429688 21.460938 21.386719 21.4375 21.386719 21.421875 Z M 11.988281 21.5625 C 11.960938 21.554688 11.960938 21.539062 11.921875 21.546875 C 11.789062 21.683594 11.9375 21.691406 11.898438 21.789062 C 11.859375 21.832031 11.964844 21.847656 11.960938 21.898438 C 12.0625 22.539062 12.972656 23.425781 13.675781 23.355469 C 14.332031 23.386719 15.34375 22.75 15.394531 22.082031 C 15.457031 21.984375 15.453125 21.867188 15.507812 21.765625 C 15.5 21.726562 15.457031 21.671875 15.472656 21.640625 C 15.484375 21.613281 15.433594 21.601562 15.441406 21.566406 C 15.4375 21.542969 15.398438 21.519531 15.398438 21.5 C 15.320312 21.503906 15.199219 21.449219 15.113281 21.460938 C 14.890625 21.507812 14.664062 21.570312 14.507812 21.742188 C 14.367188 21.894531 14.195312 22.015625 14.03125 22.144531 C 13.867188 22.292969 13.652344 22.347656 13.445312 22.304688 C 13.242188 22.222656 13.0625 22.089844 12.894531 21.960938 C 12.75 21.777344 12.539062 21.648438 12.304688 21.574219 C 12.21875 21.558594 12.164062 21.476562 12.074219 21.496094 C 12.042969 21.566406 12.007812 21.523438 11.988281 21.5625 Z M 9.710938 23.335938 C 9.710938 23.363281 9.714844 23.390625 9.726562 23.414062 C 9.71875 23.394531 9.714844 23.367188 9.710938 23.335938 Z M 14.816406 9.042969 C 14.621094 9.1875 14.453125 9.378906 14.347656 9.597656 C 14.265625 9.730469 14.273438 9.898438 14.183594 10.015625 C 14.152344 10.25 14.066406 10.484375 14.046875 10.722656 C 15.453125 10.183594 16.984375 9.976562 18.476562 10.171875 C 18.792969 10.222656 19.117188 10.253906 19.429688 10.34375 C 19.59375 10.382812 19.8125 10.425781 19.976562 10.519531 C 19.949219 10.363281 19.921875 10.207031 19.882812 10.058594 C 19.527344 9.15625 18.90625 8.667969 17.898438 8.796875 C 17.382812 8.785156 16.859375 8.804688 16.34375 8.816406 C 15.828125 8.792969 15.253906 8.695312 14.816406 9.042969 Z M 20.203125 11.128906 C 20.199219 11.125 20.199219 11.125 20.199219 11.125 C 20.199219 11.125 20.199219 11.125 20.203125 11.128906 Z M 20.488281 11.65625 C 20.597656 11.789062 20.757812 11.84375 20.90625 11.929688 C 21.121094 12.039062 21.3125 12.230469 21.503906 12.375 C 22.691406 13.378906 23.6875 14.65625 24.25 16.121094 C 24.980469 18 24.988281 20.160156 24.339844 22.074219 C 23.734375 20.269531 23.078125 18.238281 21.6875 17.136719 C 20.976562 16.664062 20.175781 16.355469 19.46875 15.863281 C 19.296875 15.753906 19.148438 15.585938 18.964844 15.492188 C 18.847656 15.4375 18.742188 15.371094 18.632812 15.304688 C 19.632812 14.175781 20.097656 12.980469 20.183594 11.492188 C 20.289062 11.542969 20.394531 11.59375 20.488281 11.65625 Z M 19.128906 11.359375 C 19.007812 13.566406 17.636719 15.207031 15.644531 16.1875 C 15.148438 16.457031 14.597656 16.640625 14.078125 16.863281 C 13.246094 17.203125 12.503906 17.742188 11.855469 18.363281 C 10.816406 19.5625 9.777344 21.230469 9.714844 22.871094 L 9.652344 22.71875 C 9.175781 21.652344 8.980469 20.46875 8.988281 19.296875 C 9.027344 18.746094 9.105469 18.148438 9.210938 17.601562 C 10.160156 13.074219 14.707031 10.335938 19.128906 11.359375 Z M 14.636719 8.074219 C 15.324219 7.699219 16.132812 7.816406 16.882812 7.75 C 17.617188 7.773438 18.382812 7.578125 19.101562 7.804688 C 20.207031 8.121094 21.023438 9.382812 20.679688 10.507812 C 20.636719 10.710938 20.59375 10.933594 20.472656 11.101562 C 20.4375 11.125 20.40625 11.148438 20.375 11.175781 C 22.640625 11.867188 24.378906 13.878906 25.214844 16.070312 C 26.066406 18.351562 26.019531 20.976562 25.042969 23.207031 C 24.972656 23.394531 24.835938 23.65625 24.757812 23.835938 C 24.679688 24.011719 24.519531 24.105469 24.351562 24.125 C 24.226562 25.046875 23.800781 25.929688 23.636719 26.851562 C 23.394531 27.574219 23.351562 28.113281 22.703125 28.605469 C 21.523438 29.453125 20.199219 30.058594 18.976562 30.828125 C 18.164062 31.289062 17.234375 32.011719 16.253906 31.570312 C 15.476562 31.183594 14.671875 30.628906 13.921875 30.195312 C 13.027344 29.597656 12.015625 29.179688 11.183594 28.480469 C 10.925781 28.257812 10.703125 27.933594 10.613281 27.601562 C 10.472656 27.171875 10.296875 26.652344 10.210938 26.21875 C 10.066406 25.816406 10 25.394531 9.863281 24.992188 C 9.804688 24.851562 9.734375 24.71875 9.746094 24.566406 C 9.675781 24.277344 9.507812 23.984375 9.570312 23.679688 C 9.625 23.730469 9.644531 23.808594 9.683594 23.871094 C 9.679688 23.804688 9.695312 23.835938 9.757812 23.855469 C 9.773438 23.828125 9.75 23.789062 9.757812 23.753906 C 12.6875 28.871094 9.660156 26.691406 15.25 29.835938 C 15.589844 30.027344 15.933594 30.21875 16.28125 30.394531 C 16.554688 30.566406 16.867188 30.730469 17.195312 30.621094 C 17.96875 30.226562 18.816406 29.632812 19.582031 29.199219 C 20.136719 28.871094 20.75 28.519531 21.3125 28.210938 C 21.691406 27.980469 22.082031 27.796875 22.335938 27.433594 C 22.679688 26.554688 22.996094 25.65625 23.476562 24.839844 C 23.628906 24.5625 23.773438 24.269531 23.964844 24.015625 C 23.863281 23.933594 23.835938 23.867188 23.792969 23.75 L 23.671875 23.421875 C 23.039062 21.738281 22.535156 19.960938 21.554688 18.441406 C 21.054688 17.777344 20.296875 17.457031 19.652344 16.933594 C 19.203125 16.511719 18.695312 16.101562 18.378906 15.578125 C 17.722656 16.246094 16.933594 16.789062 16.09375 17.1875 C 15.128906 17.679688 14.027344 17.921875 13.164062 18.597656 C 11.976562 19.441406 11.109375 20.667969 10.480469 21.96875 C 10.285156 22.367188 10.140625 22.777344 9.9375 23.171875 C 9.847656 23.253906 9.757812 23.386719 9.742188 23.511719 C 9.730469 23.40625 9.71875 23.300781 9.714844 23.195312 C 9.710938 23.238281 9.703125 23.289062 9.710938 23.335938 C 9.699219 23.273438 9.6875 23.203125 9.667969 23.15625 C 9.667969 23.179688 9.683594 23.257812 9.652344 23.210938 C 9.644531 23.210938 9.632812 23.210938 9.625 23.207031 C 9.621094 23.269531 9.707031 23.449219 9.640625 23.355469 C 9.535156 23.210938 9.402344 23.011719 9.316406 22.839844 C 9.023438 22.300781 8.757812 21.71875 8.585938 21.128906 C 7.464844 17.539062 9.316406 13.425781 12.46875 11.503906 C 12.824219 11.285156 13.195312 11.089844 13.578125 10.917969 C 13.550781 10.757812 13.53125 10.597656 13.511719 10.5625 C 13.230469 9.589844 13.773438 8.550781 14.636719 8.074219 Z M 18.441406 5.941406 C 18.355469 5.851562 18.269531 5.742188 18.175781 5.660156 C 17.546875 4.96875 18.699219 4.585938 19.203125 4.394531 C 19.398438 4.292969 19.613281 4.214844 19.8125 4.113281 C 19.820312 4.097656 19.835938 4.09375 19.863281 4.113281 C 19.957031 4.113281 20.046875 4.042969 20.148438 4.054688 C 20.199219 4.0625 20.214844 3.957031 20.257812 4 C 20.351562 4.039062 20.355469 3.894531 20.496094 4.023438 C 20.503906 4.058594 20.488281 4.0625 20.480469 4.089844 C 20.492188 4.09375 20.503906 4.105469 20.503906 4.121094 C 20.503906 4.164062 20.558594 4.167969 20.554688 4.199219 C 20.488281 4.382812 20.394531 4.554688 20.292969 4.71875 C 20.140625 4.859375 19.976562 4.980469 19.800781 5.09375 C 20.109375 5.125 20.417969 5.1875 20.71875 5.246094 C 22.734375 5.472656 24.582031 6.550781 26.1875 7.742188 C 28.019531 9.144531 29.410156 11.035156 30.3125 13.148438 C 30.703125 14.046875 30.992188 14.984375 31.128906 15.953125 C 31.132812 16.277344 31.277344 16.605469 31.242188 16.914062 C 31.261719 17.179688 31.347656 17.453125 31.222656 17.703125 C 31.179688 17.648438 31.179688 17.582031 31.152344 17.519531 C 31.144531 17.578125 31.132812 17.546875 31.078125 17.519531 C 31.054688 17.539062 31.074219 17.578125 31.054688 17.605469 C 30.53125 16.25 30.113281 14.777344 29.480469 13.449219 C 28.15625 10.601562 25.769531 8.371094 22.945312 7.039062 C 21.957031 6.523438 20.871094 6.242188 19.839844 5.828125 C 20.09375 6.132812 20.238281 6.339844 20.183594 6.773438 C 20.171875 6.863281 20.078125 6.957031 20.054688 7.03125 C 20.039062 7.023438 20 7.054688 19.976562 7.046875 C 19.949219 7.03125 19.917969 7.074219 19.894531 7.054688 C 19.875 7.027344 19.808594 7.054688 19.765625 7.050781 C 19.691406 6.96875 19.582031 6.945312 19.507812 6.863281 C 19.492188 6.851562 19.453125 6.863281 19.445312 6.847656 C 19.417969 6.820312 19.363281 6.800781 19.316406 6.796875 C 19.222656 6.722656 19.121094 6.664062 19.042969 6.566406 C 18.859375 6.359375 18.636719 6.140625 18.441406 5.941406 Z M 9.300781 7.765625 C 9.269531 7.765625 9.246094 7.796875 9.214844 7.785156 C 9.210938 7.726562 9.238281 7.703125 9.175781 7.722656 C 9.21875 7.671875 9.28125 7.636719 9.304688 7.574219 C 9.023438 7.582031 8.828125 7.808594 8.609375 7.949219 C 8.570312 7.988281 8.507812 7.960938 8.46875 8.007812 C 8.191406 8.300781 7.835938 8.5 7.542969 8.777344 C 5.851562 10.222656 4.503906 12.363281 3.753906 14.460938 C 2.953125 17.140625 2.695312 20.179688 3.730469 22.824219 C 3.851562 23.136719 3.960938 23.464844 4.097656 23.773438 C 3.910156 23.679688 3.722656 23.59375 3.523438 23.535156 C 3.328125 23.53125 3.132812 23.535156 2.941406 23.570312 C 2.910156 23.582031 2.9375 23.632812 2.902344 23.652344 C 2.886719 23.660156 2.878906 23.675781 2.882812 23.6875 C 2.855469 23.695312 2.847656 23.683594 2.820312 23.707031 C 2.773438 23.890625 2.90625 23.824219 2.917969 23.925781 C 2.902344 23.984375 3 23.945312 3.015625 23.992188 C 3.058594 24.085938 3.167969 24.128906 3.214844 24.207031 C 3.207031 24.246094 3.222656 24.253906 3.238281 24.253906 C 3.421875 24.375 3.597656 24.523438 3.789062 24.640625 C 4.203125 24.984375 5.109375 25.789062 5.394531 24.898438 C 5.421875 24.777344 5.472656 24.648438 5.507812 24.527344 C 5.582031 24.257812 5.660156 23.957031 5.75 23.695312 C 5.792969 23.578125 5.792969 23.457031 5.808594 23.339844 C 5.789062 23.300781 5.78125 23.242188 5.789062 23.207031 C 5.800781 23.191406 5.769531 23.164062 5.773438 23.144531 C 5.804688 23.039062 5.769531 22.929688 5.804688 22.824219 C 5.785156 22.789062 5.734375 22.742188 5.742188 22.710938 C 5.75 22.683594 5.699219 22.679688 5.695312 22.644531 C 5.691406 22.621094 5.644531 22.605469 5.644531 22.585938 C 5.566406 22.605469 5.441406 22.570312 5.355469 22.605469 C 4.953125 22.773438 4.851562 23 4.710938 23.363281 C 4.675781 23.117188 4.636719 22.875 4.59375 22.628906 C 4.34375 21.5 4.1875 20.355469 4.171875 19.199219 C 4.070312 16.371094 4.871094 13.535156 6.488281 11.210938 C 7.332031 10 8.386719 8.898438 9.300781 7.765625 Z M 29.027344 27.867188 C 29.019531 28.085938 28.980469 28.3125 28.96875 28.535156 C 28.976562 28.550781 28.976562 28.566406 28.941406 28.578125 C 28.894531 28.660156 28.914062 28.773438 28.851562 28.855469 C 28.820312 28.894531 28.902344 28.960938 28.84375 28.976562 C 28.761719 29.039062 28.886719 29.117188 28.703125 29.171875 C 28.667969 29.160156 28.675781 29.144531 28.65625 29.125 C 28.648438 29.132812 28.628906 29.136719 28.613281 29.128906 C 28.578125 29.105469 28.550781 29.15625 28.523438 29.132812 C 28.398438 28.984375 28.296875 28.816406 28.203125 28.644531 C 28.152344 28.433594 28.132812 28.214844 28.121094 27.996094 C 27.765625 28.535156 27.332031 29.035156 26.976562 29.570312 C 24.726562 32.777344 20.59375 34.992188 16.644531 34.796875 C 12.96875 34.546875 9.226562 32.277344 7.105469 29.335938 C 7.1875 29.363281 7.246094 29.433594 7.320312 29.484375 C 7.277344 29.414062 7.3125 29.445312 7.378906 29.441406 C 7.382812 29.402344 7.335938 29.375 7.324219 29.339844 C 8.929688 30.453125 10.511719 31.75 12.289062 32.621094 C 15.976562 34.460938 19.824219 34.042969 23.1875 31.71875 C 23.980469 31.175781 24.757812 30.582031 25.429688 29.890625 C 26.121094 29.132812 26.824219 28.371094 27.59375 27.683594 C 27.496094 27.703125 27.402344 27.710938 27.304688 27.714844 C 27.011719 27.800781 26.71875 27.707031 26.480469 27.527344 C 26.40625 27.46875 26.375 27.34375 26.320312 27.285156 C 26.335938 27.273438 26.328125 27.226562 26.34375 27.210938 C 26.371094 27.191406 26.351562 27.144531 26.378906 27.136719 C 26.414062 27.128906 26.425781 27.058594 26.449219 27.027344 C 26.554688 27.003906 26.632812 26.921875 26.738281 26.894531 C 26.757812 26.886719 26.765625 26.847656 26.785156 26.847656 C 26.820312 26.835938 26.863281 26.800781 26.890625 26.765625 C 27 26.71875 27.105469 26.660156 27.226562 26.640625 C 27.5 26.585938 27.800781 26.503906 28.070312 26.429688 C 28.191406 26.402344 28.328125 26.382812 28.445312 26.34375 C 29.359375 26.144531 29.117188 27.332031 29.027344 27.867188 Z M 29.027344 27.867188 "/></g></g></svg>