<svg xmlns="http://www.w3.org/2000/svg" xmlns:xlink="http://www.w3.org/1999/xlink" width="48" zoomAndPan="magnify" viewBox="0 0 36 43.92" height="48" preserveAspectRatio="xMidYMid meet" version="1.2"><defs><clipPath id="5a6175a306"><path d="M 0.675781 0.601562 L 35 0.601562 L 35 35 L 0.675781 35 Z M 0.675781 0.601562 "/></clipPath></defs><g id="b5d5ef8510"><g clip-rule="nonzero" clip-path="url(#5a6175a306)"><path style=" stroke:none;fill-rule:nonzero;fill:#483520;fill-opacity:1;" d="M 17.84375 0.632812 C 8.304688 0.664062 0.679688 8.417969 0.804688 17.957031 C 0.828125 19.890625 1.171875 21.765625 1.832031 23.582031 C 2.496094 25.398438 3.4375 27.054688 4.664062 28.550781 C 4.863281 28.792969 4.972656 29.066406 5 29.375 C 5.027344 29.6875 4.964844 29.976562 4.8125 30.246094 L 3.339844 32.886719 C 2.933594 33.617188 3.597656 34.484375 4.410156 34.277344 L 9.398438 33.007812 C 9.757812 32.917969 10.105469 32.953125 10.4375 33.113281 C 12.667969 34.199219 15.027344 34.765625 17.507812 34.820312 C 27.097656 35.039062 34.96875 27.375 34.996094 17.78125 C 35.027344 8.296875 27.328125 0.597656 17.84375 0.632812 Z M 17.902344 32.71875 C 16.917969 32.71875 15.941406 32.621094 14.976562 32.429688 C 14.011719 32.238281 13.074219 31.953125 12.164062 31.578125 C 11.253906 31.199219 10.390625 30.738281 9.574219 30.191406 C 8.753906 29.644531 7.996094 29.023438 7.300781 28.328125 C 6.605469 27.632812 5.984375 26.875 5.4375 26.054688 C 4.890625 25.238281 4.429688 24.375 4.050781 23.464844 C 3.675781 22.554688 3.390625 21.617188 3.199219 20.652344 C 3.007812 19.6875 2.910156 18.710938 2.910156 17.726562 C 2.910156 9.449219 9.621094 2.738281 17.902344 2.738281 C 26.148438 2.738281 32.839844 9.398438 32.890625 17.632812 C 32.941406 25.894531 26.164062 32.71875 17.902344 32.71875 Z M 17.902344 32.71875 "/></g><path style=" stroke:none;fill-rule:nonzero;fill:#483520;fill-opacity:1;" d="M 15.222656 10.441406 L 15.226562 10.453125 L 16.121094 12.226562 C 16.320312 12.621094 16.382812 13.035156 16.304688 13.46875 C 16.226562 13.90625 16.027344 14.273438 15.703125 14.574219 C 15.378906 14.871094 15.179688 15.238281 15.101562 15.667969 C 15.023438 16.101562 15.078125 16.515625 15.273438 16.90625 C 15.8125 17.984375 16.742188 19.46875 18.160156 20.542969 C 18.484375 20.789062 18.851562 20.921875 19.261719 20.945312 C 19.667969 20.964844 20.046875 20.871094 20.398438 20.660156 L 20.972656 20.308594 C 21.527344 19.972656 22.105469 19.917969 22.710938 20.148438 L 25 21.019531 C 25.246094 21.113281 25.464844 21.25 25.65625 21.429688 C 25.847656 21.609375 25.996094 21.820312 26.105469 22.0625 C 26.210938 22.300781 26.269531 22.554688 26.277344 22.816406 C 26.285156 23.078125 26.242188 23.335938 26.148438 23.582031 C 26.121094 23.652344 26.089844 23.71875 26.058594 23.785156 L 25.421875 25.015625 C 25.320312 25.214844 25.1875 25.390625 25.023438 25.546875 C 24.859375 25.703125 24.671875 25.824219 24.46875 25.917969 C 24.261719 26.007812 24.046875 26.0625 23.820312 26.082031 C 23.597656 26.101562 23.375 26.082031 23.15625 26.027344 C 19.5625 25.09375 10.996094 21.863281 10.308594 12.089844 C 10.277344 11.691406 10.363281 11.320312 10.558594 10.972656 C 10.753906 10.628906 11.027344 10.363281 11.378906 10.183594 L 12.546875 9.582031 C 12.78125 9.460938 13.03125 9.390625 13.292969 9.367188 C 13.554688 9.347656 13.8125 9.375 14.0625 9.457031 C 14.3125 9.539062 14.539062 9.664062 14.738281 9.832031 C 14.941406 10.003906 15.101562 10.207031 15.222656 10.441406 Z M 15.222656 10.441406 "/></g></svg>